<svg width="70" height="70" viewBox="0 0 70 70" fill="none" xmlns="http://www.w3.org/2000/svg">
<path d="M55.7812 16.4062H66.6641L53.5938 3.29211V14.2187C53.5955 14.7983 53.8265 15.3537 54.2364 15.7636C54.6462 16.1734 55.2016 16.4044 55.7812 16.4062Z" fill="#BDDBFF"/>
<path d="M40.4688 42.6562C40.4671 43.6393 40.6649 44.6124 41.0503 45.5167C41.4357 46.421 42.0007 47.2376 42.7109 47.9172L50.3125 55.7812L57.9141 47.9172C58.6243 47.2376 59.1893 46.421 59.5747 45.5167C59.9601 44.6124 60.158 43.6393 60.1563 42.6562V36.0938L50.3125 31.7188L40.4688 36.0938V42.6562Z" fill="#BDDBFF"/>
<path d="M29.5312 47.0312V40.4688H25.1562V33.9062H18.5938V40.4688H22.9688V47.0312H18.5938V53.5938H22.9688V60.1562H18.5938V66.7188H25.1562V60.1562H29.5312V53.5938H25.1562V47.0312H29.5312Z" fill="#BDDBFF"/>
<path d="M5.46875 60.1562V66.7188H12.0312V60.1562H16.4062V53.5938H12.0312V47.0312H16.4062V40.4688H12.0312V33.9062H5.46875V40.4688H9.84375V47.0312H5.46875V53.5938H9.84375V60.1562H5.46875Z" fill="#BDDBFF"/>
<path d="M67.4953 15.6844L54.3484 2.50469C54.1441 2.30351 53.8695 2.18975 53.5828 2.1875H20.7812C19.9118 2.1901 19.0787 2.53663 18.4639 3.15142C17.8491 3.76622 17.5026 4.59931 17.5 5.46875V6.61719C14.5175 6.84288 11.6824 8.00479 9.39939 9.93714C7.11634 11.8695 5.50191 14.4735 4.78647 17.3778C4.07103 20.282 4.29112 23.338 5.41534 26.1097C6.53957 28.8814 8.51048 31.2272 11.0469 32.8125H5.46875C5.17867 32.8125 4.90047 32.9277 4.69535 33.1329C4.49023 33.338 4.375 33.6162 4.375 33.9062V39.375H3.28125C2.99117 39.375 2.71297 39.4902 2.50785 39.6954C2.30273 39.9005 2.1875 40.1787 2.1875 40.4688V47.0312C2.1875 47.3213 2.30273 47.5995 2.50785 47.8046C2.71297 48.0098 2.99117 48.125 3.28125 48.125H4.375V52.5H3.28125C2.99117 52.5 2.71297 52.6152 2.50785 52.8204C2.30273 53.0255 2.1875 53.3037 2.1875 53.5938V60.1562C2.1875 60.4463 2.30273 60.7245 2.50785 60.9296C2.71297 61.1348 2.99117 61.25 3.28125 61.25H4.375V66.7188C4.375 67.0088 4.49023 67.287 4.69535 67.4921C4.90047 67.6973 5.17867 67.8125 5.46875 67.8125H31.7188C32.0088 67.8125 32.287 67.6973 32.4921 67.4921C32.6973 67.287 32.8125 67.0088 32.8125 66.7188V63.4375H64.5312C65.4007 63.4349 66.2338 63.0884 66.8486 62.4736C67.4634 61.8588 67.8099 61.0257 67.8125 60.1562V16.4609C67.8139 16.3169 67.7866 16.174 67.7322 16.0407C67.6777 15.9074 67.5972 15.7862 67.4953 15.6844ZM54.6875 5.93906L64.0281 15.3125H55.7812C55.4912 15.3125 55.213 15.1973 55.0079 14.9921C54.8027 14.787 54.6875 14.5088 54.6875 14.2188V5.93906ZM6.5625 20.7812C6.5625 18.4017 7.26812 16.0756 8.59013 14.097C9.91214 12.1185 11.7912 10.5764 13.9896 9.66582C16.188 8.75521 18.6071 8.51695 20.9409 8.98118C23.2748 9.44541 25.4185 10.5913 27.1011 12.2739C28.7837 13.9565 29.9296 16.1002 30.3938 18.4341C30.858 20.7679 30.6198 23.187 29.7092 25.3854C28.7986 27.5838 27.2565 29.4629 25.278 30.7849C23.2994 32.1069 20.9733 32.8125 18.5938 32.8125C15.4035 32.8105 12.3445 31.5422 10.0886 29.2864C7.83275 27.0305 6.56453 23.9715 6.5625 20.7812ZM28.4375 41.5625V45.9375H24.0625V41.5625H28.4375ZM26.25 39.375V35H30.625V39.375H26.25ZM30.625 48.125V52.5H26.25V48.125H30.625ZM24.0625 39.375H19.6875V35H24.0625V39.375ZM17.5 41.5625H21.875V45.9375H17.5V41.5625ZM13.125 39.375V35H17.5V39.375H13.125ZM19.6875 48.125H24.0625V52.5H19.6875V48.125ZM15.3125 41.5625V45.9375H10.9375V41.5625H15.3125ZM17.5 48.125V52.5H13.125V48.125H17.5ZM6.5625 35H10.9375V39.375H6.5625V35ZM4.375 41.5625H8.75V45.9375H4.375V41.5625ZM10.9375 48.125V52.5H6.5625V48.125H10.9375ZM4.375 59.0625V54.6875H8.75V59.0625H4.375ZM10.9375 65.625H6.5625V61.25H10.9375V65.625ZM10.9375 54.6875H15.3125V59.0625H10.9375V54.6875ZM17.5 65.625H13.125V61.25H17.5V65.625ZM17.5 54.6875H21.875V59.0625H17.5V54.6875ZM24.0625 65.625H19.6875V61.25H24.0625V65.625ZM24.0625 54.6875H28.4375V59.0625H24.0625V54.6875ZM30.625 65.625H26.25V61.25H30.625V65.625ZM65.625 60.1562C65.625 60.4463 65.5098 60.7245 65.3046 60.9296C65.0995 61.1348 64.8213 61.25 64.5312 61.25H32.8125V60.1562C32.8125 59.8662 32.6973 59.588 32.4921 59.3829C32.287 59.1777 32.0088 59.0625 31.7188 59.0625H30.625V54.6875H31.7188C32.0088 54.6875 32.287 54.5723 32.4921 54.3671C32.6973 54.162 32.8125 53.8838 32.8125 53.5938V47.0312C32.8125 46.7412 32.6973 46.463 32.4921 46.2579C32.287 46.0527 32.0088 45.9375 31.7188 45.9375H30.625V41.5625H31.7188C32.0088 41.5625 32.287 41.4473 32.4921 41.2421C32.6973 41.037 32.8125 40.7588 32.8125 40.4688V33.9062C32.8125 33.6162 32.6973 33.338 32.4921 33.1329C32.287 32.9277 32.0088 32.8125 31.7188 32.8125H26.1406C27.9332 31.6943 29.453 30.1894 30.589 28.4081C31.7251 26.6268 32.4485 24.614 32.7064 22.5171C32.9643 20.4202 32.7502 18.2921 32.0797 16.2886C31.4093 14.2851 30.2994 12.4568 28.8313 10.9375H32.8125V8.75H28.4375V10.5438C26.066 8.25745 22.972 6.86899 19.6875 6.61719V5.46875C19.6875 5.17867 19.8027 4.90047 20.0079 4.69535C20.213 4.49023 20.4912 4.375 20.7812 4.375H52.5V14.2188C52.5026 15.0882 52.8491 15.9213 53.4639 16.5361C54.0787 17.1509 54.9118 17.4974 55.7812 17.5H65.625V60.1562Z" fill="#3485FF"/>
<path d="M35 8.75H50.3125V10.9375H35V8.75Z" fill="#3485FF"/>
<path d="M35 13.125H50.3125V15.3125H35V13.125Z" fill="#3485FF"/>
<path d="M41.5625 19.6875H45.9375V21.875H41.5625V19.6875Z" fill="#3485FF"/>
<path d="M48.125 19.6875H63.4375V21.875H48.125V19.6875Z" fill="#3485FF"/>
<path d="M41.5625 24.0625H45.9375V26.25H41.5625V24.0625Z" fill="#3485FF"/>
<path d="M48.125 24.0625H63.4375V26.25H48.125V24.0625Z" fill="#3485FF"/>
<path d="M18.5938 15.3125C19.1739 15.3125 19.7303 15.543 20.1405 15.9532C20.5508 16.3634 20.7812 16.9198 20.7812 17.5H22.9688C22.9651 16.5329 22.6412 15.5942 22.0475 14.8308C21.4538 14.0673 20.6239 13.5221 19.6875 13.2803V10.9375H17.5V13.2803C16.4701 13.5454 15.5723 14.1772 14.9752 15.0573C14.3781 15.9373 14.1227 17.005 14.257 18.06C14.3912 19.1149 14.9059 20.0846 15.7044 20.787C16.5029 21.4895 17.5303 21.8763 18.5938 21.875C19.0264 21.875 19.4493 22.0033 19.8091 22.2437C20.1688 22.484 20.4492 22.8257 20.6147 23.2254C20.7803 23.6251 20.8236 24.0649 20.7392 24.4893C20.6548 24.9136 20.4465 25.3034 20.1405 25.6093C19.8346 25.9152 19.4448 26.1236 19.0205 26.208C18.5962 26.2924 18.1563 26.2491 17.7566 26.0835C17.3569 25.9179 17.0153 25.6375 16.7749 25.2778C16.5345 24.9181 16.4062 24.4951 16.4062 24.0625H14.2188C14.2224 25.0296 14.5463 25.9683 15.14 26.7317C15.7337 27.4952 16.5636 28.0404 17.5 28.2822V30.625H19.6875V28.2822C20.7174 28.0171 21.6152 27.3853 22.2123 26.5052C22.8094 25.6252 23.0648 24.5575 22.9305 23.5025C22.7963 22.4476 22.2816 21.4779 21.4831 20.7755C20.6846 20.073 19.6572 19.6862 18.5938 19.6875C18.0136 19.6875 17.4572 19.457 17.047 19.0468C16.6367 18.6366 16.4062 18.0802 16.4062 17.5C16.4062 16.9198 16.6367 16.3634 17.047 15.9532C17.4572 15.543 18.0136 15.3125 18.5938 15.3125Z" fill="#3485FF"/>
<path d="M46.9915 40.9762L45.445 42.5227L48.5392 45.617C48.7443 45.822 49.0225 45.9372 49.3125 45.9372C49.6025 45.9372 49.8806 45.822 50.0858 45.617L56.2731 39.4296L54.7265 37.8831L49.3125 43.2971L46.9915 40.9762Z" fill="#3485FF"/>
<path d="M60.6047 35.0984L50.7609 30.7234C50.6203 30.6586 50.4673 30.625 50.3125 30.625C50.1577 30.625 50.0047 30.6586 49.8641 30.7234L40.0203 35.0984C39.8273 35.1832 39.6634 35.3226 39.5487 35.4995C39.434 35.6764 39.3737 35.8829 39.375 36.0937V42.6562C39.3714 43.7817 39.5964 44.8962 40.0363 45.9321C40.4763 46.9681 41.122 47.9039 41.9344 48.6828L49.525 56.5359C49.6263 56.643 49.7484 56.7284 49.8838 56.7867C50.0192 56.845 50.1651 56.875 50.3125 56.875C50.4599 56.875 50.6058 56.845 50.7412 56.7867C50.8766 56.7284 50.9987 56.643 51.1 56.5359L58.6906 48.6828C59.5039 47.9045 60.1502 46.9688 60.5902 45.9328C61.0302 44.8967 61.2547 43.7819 61.25 42.6562V36.0937C61.2514 35.8829 61.191 35.6764 61.0763 35.4995C60.9616 35.3226 60.7977 35.1832 60.6047 35.0984ZM59.0625 42.6562C59.0626 43.4978 58.891 44.3306 58.5581 45.1035C58.2252 45.8765 57.7381 46.5734 57.1266 47.1515L50.3125 54.2062L43.4984 47.1515L43.4875 47.1406C42.8788 46.5632 42.3941 45.8677 42.0632 45.0967C41.7322 44.3257 41.5618 43.4953 41.5625 42.6562V36.8047L50.3125 32.9109L59.0625 36.8047V42.6562Z" fill="#3485FF"/>
</svg>
