<svg width="70" height="70" viewBox="0 0 70 70" fill="none" xmlns="http://www.w3.org/2000/svg">
<path d="M64.5313 14.2188V19.6875H22.9688L62.3766 14.5031L64.5313 14.2188Z" fill="#BDDBFF"/>
<path d="M41.5625 24.0625C39.2287 24.0627 36.9709 24.8921 35.192 26.4026C33.413 27.9131 32.2286 30.0065 31.85 32.3094C31.9925 32.417 32.1277 32.5339 32.2547 32.6594C32.8841 33.2964 33.3072 34.1082 33.4687 34.9891C33.5015 35.2406 33.5234 35.4922 33.5343 35.7547C33.5266 36.651 33.2483 37.524 32.7359 38.2594C33.5122 39.8338 34.6953 41.172 36.1628 42.1353C37.6302 43.0986 39.3286 43.652 41.0819 43.7381C42.8351 43.8243 44.5795 43.44 46.1343 42.6251C47.6891 41.8103 48.9977 40.5945 49.9246 39.1037C50.8514 37.613 51.3628 35.9015 51.4056 34.1466C51.4485 32.3918 51.0213 30.6574 50.1684 29.1231C49.3154 27.5889 48.0677 26.3107 46.5546 25.4209C45.0414 24.5311 43.3179 24.0621 41.5625 24.0625Z" fill="#BDDBFF"/>
<path d="M5.46877 60.1562H29.5313V66.7187H5.46877V60.1562Z" fill="#BDDBFF"/>
<path d="M66.7188 18.5938H65.625V14.2188C65.6248 14.0633 65.5914 13.9096 65.5271 13.7681C65.4627 13.6265 65.369 13.5002 65.252 13.3978C65.135 13.2953 64.9976 13.2189 64.8488 13.1738C64.7 13.1287 64.5432 13.1158 64.3891 13.136L63.4375 13.2563V8.75005C63.4384 8.5828 63.4002 8.41764 63.3262 8.26767C63.2522 8.11769 63.1442 7.98702 63.0109 7.88599C62.8789 7.7848 62.7258 7.71457 62.563 7.68049C62.4002 7.64642 62.2318 7.64936 62.0703 7.68911L21.9516 17.9813L26.0312 10.9157C26.5025 10.0852 26.7511 9.14708 26.7531 8.19224C26.7555 6.98748 26.36 5.81567 25.628 4.85879C24.896 3.90191 23.8685 3.21352 22.7051 2.90054C21.5417 2.58756 20.3075 2.6675 19.1942 3.12796C18.0809 3.58841 17.1509 4.4036 16.5484 5.44692L2.93125 29.0501C2.44422 29.883 2.18753 30.8305 2.1875 31.7954V45.3251C2.18592 45.8318 2.25588 46.3363 2.39531 46.8235L5.88437 59.0626H5.46875C5.17867 59.0626 4.90047 59.1778 4.69535 59.3829C4.49023 59.588 4.375 59.8662 4.375 60.1563V66.7188C4.375 67.0089 4.49023 67.2871 4.69535 67.4922C4.90047 67.6973 5.17867 67.8126 5.46875 67.8126H29.5312C29.8213 67.8126 30.0995 67.6973 30.3046 67.4922C30.5098 67.2871 30.625 67.0089 30.625 66.7188V60.1563C30.625 59.8662 30.5098 59.588 30.3046 59.3829C30.0995 59.1778 29.8213 59.0626 29.5312 59.0626V56.3172C29.5328 55.3099 29.3355 54.3122 28.9507 53.3813C28.566 52.4504 28.0013 51.6045 27.2891 50.8922L25.6047 49.2188H66.7188C67.0088 49.2188 67.287 49.1036 67.4921 48.8985C67.6973 48.6933 67.8125 48.4151 67.8125 48.1251V19.6875C67.8125 19.3975 67.6973 19.1193 67.4921 18.9142C67.287 18.709 67.0088 18.5938 66.7188 18.5938ZM63.4375 15.4657V18.5938H39.6703L63.4375 15.4657ZM61.25 10.161V13.5516L34.1141 17.1172L61.25 10.161ZM28.4375 65.6251H6.5625V61.2501H28.4375V65.6251ZM21.9625 48.5407C22.0167 48.6732 22.0988 48.7926 22.2031 48.8907L22.1922 48.9016L25.7359 52.4454C26.2481 52.9513 26.6542 53.5543 26.9303 54.2192C27.2063 54.884 27.3469 55.5973 27.3437 56.3172V59.0626H8.15937L4.49531 46.2329C4.41703 45.9366 4.37661 45.6315 4.375 45.3251V31.7954C4.37321 31.218 4.5282 30.6509 4.82343 30.1547L18.4516 6.54067C18.6651 6.16672 18.9508 5.83888 19.292 5.57615C19.6332 5.31342 20.0231 5.12103 20.4392 5.01013C20.8554 4.89924 21.2893 4.87204 21.716 4.93012C22.1427 4.98821 22.5537 5.13041 22.925 5.34849C23.4279 5.6323 23.8455 6.04589 24.134 6.54609C24.4226 7.0463 24.5717 7.61479 24.5656 8.19224C24.5643 8.76432 24.4135 9.32612 24.1281 9.82192L19.0641 18.5938H16.4062C16.1162 18.5938 15.838 18.709 15.6328 18.9142C15.4277 19.1193 15.3125 19.3975 15.3125 19.6875V42.6563C15.3137 42.8736 15.3786 43.0857 15.4991 43.2665C15.6196 43.4473 15.7905 43.5888 15.9906 43.6735C16.1943 43.7556 16.418 43.7745 16.6326 43.7276C16.8472 43.6808 17.0427 43.5705 17.1937 43.411L26.8406 33.436C27.2627 33.0164 27.7907 32.7192 28.3684 32.5761C28.9461 32.433 29.5518 32.4493 30.1209 32.6233C30.69 32.7973 31.2013 33.1224 31.6002 33.5641C31.9991 34.0058 32.2706 34.5474 32.3859 35.1313C32.4078 35.3501 32.4297 35.5688 32.4406 35.7438C32.4322 36.6122 32.0872 37.4435 31.4781 38.0625L22.1922 47.3485C22.0404 47.5023 21.9376 47.6976 21.8967 47.9098C21.8559 48.122 21.8787 48.3415 21.9625 48.5407ZM65.625 47.0313H25.6047L32.55 40.0969C33.5476 41.5667 34.8915 42.7685 36.4632 43.5963C38.0349 44.4241 39.7861 44.8525 41.5625 44.8438C43.5859 44.8456 45.5701 44.286 47.2945 43.2274C49.0188 42.1688 50.4157 40.6526 51.3298 38.8475C52.2439 37.0424 52.6394 35.0191 52.4722 33.0026C52.305 30.9861 51.5817 29.0556 50.3829 27.4256C49.184 25.7957 47.5564 24.5302 45.6813 23.7701C43.8061 23.0099 41.7568 22.7848 39.7614 23.1197C37.7659 23.4547 35.9025 24.3366 34.3783 25.6675C32.8542 26.9983 31.7291 28.7258 31.1281 30.6579C30.1364 30.2794 29.0564 30.1957 28.0182 30.4169C26.98 30.6382 26.0279 31.1548 25.2766 31.9047L17.5 39.9547V20.7813H65.625V47.0313ZM34.5406 34.7813C34.3428 33.6987 33.8246 32.7005 33.0531 31.9157C33.5112 29.9229 34.6508 28.1527 36.2751 26.9108C37.8994 25.6688 39.9064 25.033 41.9496 25.1133C43.9927 25.1935 45.9437 25.9847 47.4656 27.3503C48.9875 28.7158 49.9847 30.5699 50.2851 32.5924C50.5856 34.615 50.1702 36.6789 49.111 38.4278C48.0517 40.1767 46.4149 41.5008 44.4833 42.1714C42.5516 42.8421 40.4465 42.8171 38.5313 42.1008C36.6162 41.3846 35.0113 40.022 33.9937 38.2485C34.393 37.461 34.6098 36.5937 34.6281 35.711C34.6172 35.4157 34.5844 35.1313 34.5406 34.7813Z" fill="#3485FF"/>
<path d="M41.5625 37.1875C41.2724 37.1875 40.9942 37.0723 40.7891 36.8671C40.584 36.662 40.4688 36.3838 40.4688 36.0938H38.2812C38.2841 36.77 38.4957 37.4288 38.8873 37.9801C39.2789 38.5315 39.8312 38.9483 40.4688 39.1738V40.4688H42.6563V39.1738C43.3854 38.9169 44.0002 38.4103 44.3916 37.7436C44.7831 37.077 44.926 36.2933 44.795 35.5314C44.664 34.7695 44.2675 34.0785 43.6759 33.5809C43.0843 33.0832 42.3356 32.811 41.5625 32.8125C41.3462 32.8125 41.1347 32.7484 40.9548 32.6282C40.775 32.508 40.6348 32.3372 40.552 32.1373C40.4692 31.9375 40.4476 31.7175 40.4898 31.5054C40.532 31.2932 40.6361 31.0983 40.7891 30.9454C40.9421 30.7924 41.137 30.6882 41.3491 30.646C41.5613 30.6038 41.7812 30.6255 41.9811 30.7083C42.1809 30.791 42.3517 30.9312 42.4719 31.1111C42.5921 31.291 42.6563 31.5024 42.6563 31.7188H44.8438C44.841 31.0425 44.6293 30.3837 44.2377 29.8324C43.8462 29.281 43.2938 28.8642 42.6563 28.6388V27.3438H40.4688V28.6388C39.7396 28.8956 39.1248 29.4022 38.7334 30.0689C38.3419 30.7355 38.199 31.5192 38.33 32.2811C38.461 33.043 38.8575 33.734 39.4491 34.2316C40.0407 34.7293 40.7894 35.0015 41.5625 35C41.8526 35 42.1308 35.1152 42.3359 35.3204C42.541 35.5255 42.6563 35.8037 42.6563 36.0938C42.6563 36.3838 42.541 36.662 42.3359 36.8671C42.1308 37.0723 41.8526 37.1875 41.5625 37.1875Z" fill="#3485FF"/>
<path d="M21.875 27.2048C22.631 27.008 23.3207 26.613 23.8731 26.0606C24.4255 25.5082 24.8205 24.8185 25.0173 24.0625H27.3438V21.875H24.0625C23.7724 21.875 23.4942 21.9902 23.2891 22.1954C23.084 22.4005 22.9688 22.6787 22.9688 22.9688C22.9688 23.5489 22.7383 24.1053 22.328 24.5155C21.9178 24.9258 21.3614 25.1562 20.7812 25.1562C20.4912 25.1562 20.213 25.2715 20.0079 25.4766C19.8027 25.6817 19.6875 25.9599 19.6875 26.25V29.5312H21.875V27.2048Z" fill="#3485FF"/>
<path d="M61.25 28.2986V30.625H63.4375V27.3438C63.4375 27.0537 63.3223 26.7755 63.1172 26.5704C62.912 26.3652 62.6338 26.25 62.3438 26.25C61.7636 26.25 61.2072 26.0195 60.797 25.6093C60.3867 25.1991 60.1563 24.6427 60.1563 24.0625C60.1563 23.7724 60.041 23.4942 59.8359 23.2891C59.6308 23.084 59.3526 22.9688 59.0625 22.9688H55.7812V25.1562H58.1077C58.3045 25.9122 58.6995 26.602 59.2519 27.1544C59.8043 27.7068 60.494 28.1017 61.25 28.2986Z" fill="#3485FF"/>
<path d="M60.1563 43.75C60.1563 43.1698 60.3867 42.6134 60.797 42.2032C61.2072 41.793 61.7636 41.5625 62.3438 41.5625C62.6338 41.5625 62.912 41.4473 63.1172 41.2421C63.3223 41.037 63.4375 40.7588 63.4375 40.4688V37.1875H61.25V39.5139C60.494 39.7108 59.8043 40.1057 59.2519 40.6581C58.6995 41.2105 58.3045 41.9003 58.1077 42.6562H55.7812V44.8438H59.0625C59.3526 44.8438 59.6308 44.7285 59.8359 44.5234C60.041 44.3183 60.1563 44.0401 60.1563 43.75Z" fill="#3485FF"/>
</svg>
