<?xml version="1.0" encoding="utf-8"?>
<!-- Generator: Adobe Illustrator 27.5.0, SVG Export Plug-In . SVG Version: 6.00 Build 0)  -->
<svg version="1.1" xmlns="http://www.w3.org/2000/svg" xmlns:xlink="http://www.w3.org/1999/xlink" x="0px" y="0px"
	 viewBox="0 0 500 500" style="enable-background:new 0 0 500 500;" xml:space="preserve">
<g id="BACKGROUND">
	<g>
		<rect id="XMLID_2_" style="fill:#F4F4F4;" width="500" height="500"/>
		<rect id="XMLID_4_" style="fill:#311A68;" width="159.667" height="500"/>
	</g>
</g>
<g id="OBJECTS">
	<g>
		<rect id="XMLID_108_" y="142" style="fill:#3D298E;" width="159.646" height="32.614"/>
		<rect id="XMLID_279_" y="411.333" style="fill:#1E0E51;" width="159.646" height="32.614"/>
		<g id="XMLID_109_">
			<rect id="XMLID_110_" y="174.696" style="fill:#1E0E51;" width="159.646" height="1.317"/>
			<rect id="XMLID_111_" y="210.025" style="fill:#1E0E51;" width="159.646" height="1.317"/>
			<rect id="XMLID_112_" y="245.354" style="fill:#1E0E51;" width="159.646" height="1.317"/>
			<rect id="XMLID_113_" y="280.683" style="fill:#1E0E51;" width="159.646" height="1.317"/>
			<rect id="XMLID_114_" y="316.013" style="fill:#1E0E51;" width="159.646" height="1.317"/>
			<rect id="XMLID_115_" y="351.342" style="fill:#1E0E51;" width="159.646" height="1.317"/>
		</g>
		<rect id="XMLID_116_" y="142" style="fill:#F4F4F4;" width="3.95" height="32.614"/>
		<g id="XMLID_22_">
			<g id="XMLID_107_">
				<g id="XMLID_41_">
					<g id="XMLID_74_">
						<path id="XMLID_106_" style="fill:#F4F4F4;" d="M34.182,162.574h-1.97c0-1.648-0.586-3.246-1.651-4.5l1.501-1.275
							C33.429,158.408,34.182,160.459,34.182,162.574z"/>
					</g>
					<g id="XMLID_73_">
						<path id="XMLID_105_" style="fill:#F4F4F4;" d="M18.299,162.574h-1.97c0-4.922,4.004-8.927,8.927-8.927
							c1.776,0,3.491,0.52,4.961,1.505l-1.096,1.637c-1.144-0.766-2.481-1.171-3.865-1.171
							C21.419,155.617,18.299,158.738,18.299,162.574z"/>
					</g>
					<g id="XMLID_70_">
						<path id="XMLID_23_" style="fill:#F4F4F4;" d="M24.429,162.038l7.252-9.727c0.064-0.085,0.185-0.103,0.27-0.039
							c0.079,0.059,0.1,0.166,0.053,0.249l-5.923,10.589c-0.266,0.476-0.868,0.646-1.343,0.38c-0.476-0.266-0.646-0.867-0.38-1.343
							C24.379,162.11,24.405,162.071,24.429,162.038z"/>
					</g>
				</g>
				<g id="XMLID_64_">
					<g id="XMLID_69_">
						<path id="XMLID_102_" style="fill:#F4F4F4;" d="M25.394,199.975c-3.768,0-6.833-3.066-6.833-6.834
							c0-3.768,3.065-6.833,6.833-6.833s6.833,3.066,6.833,6.833C32.227,196.909,29.162,199.975,25.394,199.975z M25.394,188.277
							c-2.682,0-4.863,2.182-4.863,4.863c0,2.682,2.182,4.863,4.863,4.863c2.682,0,4.864-2.182,4.864-4.863
							C30.257,190.459,28.076,188.277,25.394,188.277z"/>
					</g>
					<g id="XMLID_68_">
						<rect id="XMLID_101_" x="24.409" y="185.353" style="fill:#F4F4F4;" width="1.97" height="3.817"/>
					</g>
					<g id="XMLID_67_">
						<rect id="XMLID_100_" x="17.406" y="192.079" style="fill:#F4F4F4;" width="3.817" height="1.97"/>
					</g>
					<g id="XMLID_66_">
						<rect id="XMLID_99_" x="24.132" y="197.235" style="fill:#F4F4F4;" width="1.97" height="3.817"/>
					</g>
					<g id="XMLID_65_">
						<rect id="XMLID_98_" x="29.288" y="192.356" style="fill:#F4F4F4;" width="3.817" height="1.97"/>
					</g>
				</g>
				<g id="XMLID_71_">
					<g id="XMLID_63_">
						<rect id="XMLID_97_" x="20.101" y="228.062" style="fill:#F4F4F4;" width="2.709" height="5.365"/>
					</g>
					<g id="XMLID_62_">
						<rect id="XMLID_96_" x="23.901" y="225.994" style="fill:#F4F4F4;" width="2.709" height="7.432"/>
					</g>
					<g id="XMLID_61_">
						<rect id="XMLID_95_" x="27.701" y="223.535" style="fill:#F4F4F4;" width="2.709" height="9.891"/>
					</g>
				</g>
				<g id="XMLID_50_">
					<g id="XMLID_60_">
						<path id="XMLID_92_" style="fill:#F4F4F4;" d="M25.255,268.567c-2.651,0-4.808-2.157-4.808-4.808s2.157-4.809,4.808-4.809
							c2.652,0,4.809,2.157,4.809,4.809S27.907,268.567,25.255,268.567z M25.255,260.921c-1.565,0-2.838,1.273-2.838,2.839
							c0,1.565,1.273,2.838,2.838,2.838c1.565,0,2.839-1.273,2.839-2.838C28.094,262.194,26.82,260.921,25.255,260.921z"/>
					</g>
					<g id="XMLID_51_">
						<g id="XMLID_59_">
							<rect id="XMLID_91_" x="23.565" y="257.459" style="fill:#F4F4F4;" width="3.381" height="3.346"/>
						</g>
						<g id="XMLID_58_">
							
								<rect id="XMLID_90_" x="20.293" y="258.814" transform="matrix(0.707 -0.7072 0.7072 0.707 -177.7675 91.8564)" style="fill:#F4F4F4;" width="3.381" height="3.346"/>
						</g>
						<g id="XMLID_57_">
							<rect id="XMLID_89_" x="18.955" y="262.068" style="fill:#F4F4F4;" width="3.346" height="3.381"/>
						</g>
						<g id="XMLID_56_">
							
								<rect id="XMLID_88_" x="20.31" y="265.34" transform="matrix(0.7071 -0.7071 0.7071 0.7071 -182.3729 93.7475)" style="fill:#F4F4F4;" width="3.346" height="3.381"/>
						</g>
						<g id="XMLID_55_">
							<rect id="XMLID_87_" x="23.565" y="266.713" style="fill:#F4F4F4;" width="3.381" height="3.346"/>
						</g>
						<g id="XMLID_54_">
							
								<rect id="XMLID_86_" x="26.836" y="265.357" transform="matrix(0.7071 -0.7071 0.7071 0.7071 -180.4638 98.383)" style="fill:#F4F4F4;" width="3.381" height="3.346"/>
						</g>
						<g id="XMLID_53_">
							<rect id="XMLID_85_" x="28.209" y="262.068" style="fill:#F4F4F4;" width="3.346" height="3.381"/>
						</g>
						<g id="XMLID_52_">
							
								<rect id="XMLID_84_" x="26.854" y="258.797" transform="matrix(0.7071 -0.7071 0.7071 0.7071 -175.8438 96.4751)" style="fill:#F4F4F4;" width="3.346" height="3.381"/>
						</g>
					</g>
				</g>
				<g id="XMLID_47_">
					<g id="XMLID_49_">
						<path id="XMLID_81_" style="fill:#F4F4F4;" d="M32.678,303.942H17.832v-9.809h14.846V303.942z M19.802,301.972h10.906v-5.869
							H19.802V301.972z"/>
					</g>
					<g id="XMLID_48_">
						<path id="XMLID_80_" style="fill:#F4F4F4;" d="M25.3,299.62c-0.679,0-1.344-0.188-1.923-0.544l-5.076-3.119l1.032-1.678
							l5.075,3.119c0.537,0.33,1.247,0.33,1.783,0l5.075-3.119l1.032,1.678l-5.075,3.119C26.644,299.432,25.98,299.62,25.3,299.62z"
							/>
					</g>
				</g>
				<g id="XMLID_42_">
					<g id="XMLID_46_">
						<path id="XMLID_77_" style="fill:#F4F4F4;" d="M32.481,337.202H18.029v-9.456h14.452V337.202z M19.457,335.775h11.597v-6.601
							H19.457V335.775z"/>
					</g>
					<g id="XMLID_45_">
						<polygon id="XMLID_76_" style="fill:#F4F4F4;" points="30.741,340.884 26.644,337.102 27.613,336.054 29.314,337.624 
							29.314,336.31 30.741,336.31 						"/>
					</g>
					<g id="XMLID_44_">
						<rect id="XMLID_75_" x="21.033" y="330.748" style="fill:#F4F4F4;" width="5.263" height="1.427"/>
					</g>
					<g id="XMLID_43_">
						<rect id="XMLID_72_" x="21.033" y="332.919" style="fill:#F4F4F4;" width="7.791" height="1.427"/>
					</g>
				</g>
			</g>
			<rect id="XMLID_513_" x="40.815" y="157.086" style="fill:none;" width="105.681" height="6.748"/>
			
				<text id="XMLID_118_" transform="matrix(1 0 0 1 40.8149 162.9479)" style="fill:#F4F4F4; font-family:'Montserrat-Regular'; font-size:7.8997px;">Dashboard</text>
			<rect id="XMLID_511_" x="40.815" y="190.66" style="fill:none;" width="105.681" height="6.748"/>
			
				<text id="XMLID_120_" transform="matrix(1 0 0 1 40.8149 196.5211)" style="fill:#F4F4F4; font-family:'Montserrat-Regular'; font-size:7.8997px;">Targets</text>
			<rect id="XMLID_509_" x="40.815" y="226.538" style="fill:none;" width="105.681" height="6.748"/>
			
				<text id="XMLID_122_" transform="matrix(1 0 0 1 40.8149 232.399)" style="fill:#F4F4F4; font-family:'Montserrat-Regular'; font-size:7.8997px;">Charts</text>
			<rect id="XMLID_507_" x="40.815" y="260.77" style="fill:none;" width="105.681" height="6.748"/>
			
				<text id="XMLID_124_" transform="matrix(1 0 0 1 40.8149 266.6309)" style="fill:#F4F4F4; font-family:'Montserrat-Regular'; font-size:7.8997px;">Settings</text>
			<rect id="XMLID_505_" x="40.815" y="296.538" style="fill:none;" width="105.681" height="6.748"/>
			
				<text id="XMLID_126_" transform="matrix(1 0 0 1 40.8149 302.3994)" style="fill:#F4F4F4; font-family:'Montserrat-Regular'; font-size:7.8997px;">Messages</text>
			<rect id="XMLID_503_" x="40.815" y="329.453" style="fill:none;" width="105.681" height="6.748"/>
			
				<text id="XMLID_128_" transform="matrix(1 0 0 1 40.8149 335.3142)" style="fill:#F4F4F4; font-family:'Montserrat-Regular'; font-size:7.8997px;">Feedback</text>
		</g>
		
			<ellipse id="XMLID_264_" transform="matrix(0.2324 -0.9726 0.9726 0.2324 -9.1752 126.5405)" style="fill:#3D298E;" cx="75.583" cy="69.083" rx="39.417" ry="39.417"/>
		<g id="XMLID_290_">
			<rect id="XMLID_130_" x="176" y="108" style="fill:#311A68;" width="145" height="145"/>
			<g id="XMLID_236_">
				<g id="XMLID_137_">
					<rect id="XMLID_136_" x="197.693" y="178.192" style="fill:#FFFFFF;" width="13.738" height="39.058"/>
					<rect id="XMLID_138_" x="218.704" y="161.761" style="fill:#FFFFFF;" width="13.738" height="55.489"/>
					<rect id="XMLID_139_" x="239.714" y="170.38" style="fill:#FFFFFF;" width="13.738" height="46.87"/>
					<rect id="XMLID_140_" x="260.725" y="149.639" style="fill:#FFFFFF;" width="13.738" height="67.611"/>
					<rect id="XMLID_141_" x="281.736" y="140.75" style="fill:#FFFFFF;" width="13.738" height="76.5"/>
				</g>
				<rect id="XMLID_489_" x="196.875" y="222.083" style="fill:none;" width="15.417" height="12.833"/>
				
					<text id="XMLID_143_" transform="matrix(1 0 0 1 198.0874 228.0194)" style="fill:#FFFFFF; font-family:'Montserrat-Regular'; font-size:8px;">jun</text>
				<rect id="XMLID_485_" x="196.542" y="164.333" style="fill:none;" width="15.417" height="12.833"/>
				
					<text id="XMLID_153_" transform="matrix(1 0 0 1 199.0905 170.2694)" style="fill:#FFFFFF; font-family:'Montserrat-Regular'; font-size:8px;">121</text>
				<rect id="XMLID_482_" x="216.708" y="151.333" style="fill:none;" width="15.417" height="12.833"/>
				
					<text id="XMLID_155_" transform="matrix(1 0 0 1 217.9847 157.2694)" style="fill:#FFFFFF; font-family:'Montserrat-Regular'; font-size:8px;">168</text>
				<rect id="XMLID_480_" x="259.458" y="139.208" style="fill:none;" width="15.417" height="12.833"/>
				
					<text id="XMLID_159_" transform="matrix(1 0 0 1 260.8143 145.1444)" style="fill:#FFFFFF; font-family:'Montserrat-Regular'; font-size:8px;">187</text>
				<rect id="XMLID_478_" x="280.833" y="130.208" style="fill:none;" width="15.417" height="12.833"/>
				
					<text id="XMLID_161_" transform="matrix(1 0 0 1 281.3495 136.1444)" style="fill:#FFFFFF; font-family:'Montserrat-Regular'; font-size:8px;">202</text>
				<rect id="XMLID_476_" x="191.25" y="116.458" style="fill:none;" width="90.417" height="9.167"/>
				
					<text id="XMLID_163_" transform="matrix(1 0 0 1 191.25 122.3944)" style="fill:#FFFFFF; font-family:'Montserrat-Medium'; font-size:8px;">Lorem</text>
				<rect id="XMLID_474_" x="238.333" y="158.833" style="fill:none;" width="15.417" height="12.833"/>
				
					<text id="XMLID_157_" transform="matrix(1 0 0 1 239.6898 164.7694)" style="fill:#FFFFFF; font-family:'Montserrat-Regular'; font-size:8px;">145</text>
				<rect id="XMLID_472_" x="217.583" y="222.083" style="fill:none;" width="15.417" height="12.833"/>
				
					<text id="XMLID_145_" transform="matrix(1 0 0 1 220.4276 228.0194)" style="fill:#FFFFFF; font-family:'Montserrat-Regular'; font-size:8px;">jul</text>
				<rect id="XMLID_469_" x="238.833" y="222.083" style="fill:none;" width="15.417" height="12.833"/>
				
					<text id="XMLID_147_" transform="matrix(1 0 0 1 241.4896 228.0194)" style="fill:#FFFFFF; font-family:'Montserrat-Regular'; font-size:8px;">au</text>
				<rect id="XMLID_466_" x="260.25" y="222.083" style="fill:none;" width="15.417" height="12.833"/>
				
					<text id="XMLID_149_" transform="matrix(1 0 0 1 260.8745 228.0194)" style="fill:#FFFFFF; font-family:'Montserrat-Regular'; font-size:8px;">sep</text>
				<rect id="XMLID_464_" x="280.583" y="222.083" style="fill:none;" width="15.417" height="12.833"/>
				
					<text id="XMLID_151_" transform="matrix(1 0 0 1 281.9076 228.0194)" style="fill:#FFFFFF; font-family:'Montserrat-Regular'; font-size:8px;">oct</text>
			</g>
		</g>
		<g id="XMLID_119_">
			<rect id="XMLID_132_" x="334" y="108" style="fill:#FFFFFF;" width="145" height="145"/>
			<g id="XMLID_13_">
				<path id="XMLID_21_" style="fill:none;stroke:#311A68;stroke-width:9;stroke-miterlimit:10;" d="M447.667,175.583
					c0,22.782-18.468,41.25-41.25,41.25c-22.782,0-41.25-18.468-41.25-41.25c0-22.782,18.468-41.25,41.25-41.25"/>
				<path id="XMLID_131_" style="fill:none;stroke:#F4F4F4;stroke-width:9;stroke-miterlimit:10;" d="M406.417,134.333
					c22.782,0,41.25,18.468,41.25,41.25"/>
				<rect id="XMLID_454_" x="351.417" y="115.458" style="fill:none;" width="90.417" height="9.167"/>
				
					<text id="XMLID_165_" transform="matrix(1 0 0 1 351.4172 121.3944)" style="fill:#311A68; font-family:'Montserrat-Medium'; font-size:8px;">Ipsum</text>
				<rect id="XMLID_450_" x="360.75" y="232.958" style="fill:none;" width="90.417" height="9.167"/>
				
					<text id="XMLID_20_" transform="matrix(1 0 0 1 370.9707 238.8944)" style="fill:#311A68; font-family:'Montserrat-Medium'; font-size:8px;">Commodo lectus</text>
				<rect id="XMLID_446_" x="377.167" y="165.042" style="fill:none;" width="65.417" height="23.917"/>
				
					<text id="XMLID_167_" transform="matrix(1 0 0 1 384.6877 183.5915)" style="fill:#311A68; font-family:'Montserrat-Medium'; font-size:25px;">75%</text>
				<g id="XMLID_18_">
					
						<rect id="XMLID_144_" x="467.311" y="172.101" transform="matrix(-0.7071 0.7071 -0.7071 -0.7071 923.6402 -30.8944)" style="fill:#311A68;" width="1.815" height="7.468"/>
					
						<rect id="XMLID_19_" x="467.311" y="176.098" transform="matrix(-0.7071 -0.7071 0.7071 -0.7071 672.1378 638.0731)" style="fill:#311A68;" width="1.815" height="7.468"/>
				</g>
				<g id="XMLID_14_">
					
						<rect id="XMLID_16_" x="346.926" y="172.101" transform="matrix(0.7071 0.7071 -0.7071 0.7071 226.1991 -194.4504)" style="fill:#311A68;" width="1.815" height="7.468"/>
					
						<rect id="XMLID_15_" x="346.926" y="176.098" transform="matrix(0.7071 -0.7071 0.7071 0.7071 -25.282 298.6288)" style="fill:#311A68;" width="1.815" height="7.468"/>
				</g>
			</g>
		</g>
		<g id="XMLID_281_">
			
				<rect id="XMLID_287_" x="44.114" y="420.13" transform="matrix(0.7071 0.7071 -0.7071 0.7071 313.902 92.4669)" style="fill:#F4F4F4;" width="2.438" height="10.034"/>
			
				<rect id="XMLID_286_" x="44.114" y="425.502" transform="matrix(0.7071 -0.7071 0.7071 0.7071 -291.1448 158.1512)" style="fill:#F4F4F4;" width="2.438" height="10.034"/>
		</g>
		<g id="XMLID_288_">
			<rect id="XMLID_133_" x="176" y="17.667" style="fill:#FFFFFF;" width="301.667" height="82"/>
			<g id="XMLID_232_">
				
					<linearGradient id="XMLID_00000119093692251667801740000001848847013987893938_" gradientUnits="userSpaceOnUse" x1="326.7083" y1="99.75" x2="326.7083" y2="48">
					<stop  offset="0.0053" style="stop-color:#FFFFFF;stop-opacity:0"/>
					<stop  offset="0.6068" style="stop-color:#8072A2;stop-opacity:0.6047"/>
					<stop  offset="1" style="stop-color:#311A68"/>
				</linearGradient>
				<polyline id="XMLID_12_" style="opacity:0.26;fill:url(#XMLID_00000119093692251667801740000001848847013987893938_);" points="
					477.5,51.5 431.667,62.75 356.417,48 281.167,77.5 205.917,62.75 175.667,76 175.667,99.75 477.75,99.75 477.75,51 				"/>
				<path id="XMLID_11_" style="fill:#311A68;" d="M208.5,62.75c0,1.427-1.157,2.583-2.583,2.583c-1.427,0-2.583-1.157-2.583-2.583
					c0-1.427,1.157-2.583,2.583-2.583C207.343,60.167,208.5,61.323,208.5,62.75z"/>
				<path id="XMLID_10_" style="fill:#311A68;" d="M283.75,77.5c0,1.427-1.157,2.583-2.583,2.583c-1.427,0-2.583-1.157-2.583-2.583
					s1.157-2.583,2.583-2.583C282.593,74.917,283.75,76.073,283.75,77.5z"/>
				<path id="XMLID_9_" style="fill:#311A68;" d="M359,48c0,1.427-1.157,2.583-2.583,2.583c-1.427,0-2.583-1.157-2.583-2.583
					s1.157-2.583,2.583-2.583C357.843,45.417,359,46.573,359,48z"/>
				<path id="XMLID_8_" style="fill:#311A68;" d="M434.25,62.75c0,1.427-1.157,2.583-2.583,2.583c-1.427,0-2.583-1.157-2.583-2.583
					c0-1.427,1.157-2.583,2.583-2.583C433.093,60.167,434.25,61.323,434.25,62.75z"/>
				<polyline id="XMLID_7_" style="fill:none;stroke:#311A68;stroke-miterlimit:10;" points="175.667,76 205.917,62.75 
					281.167,77.5 356.417,48 431.667,62.75 477.5,51.5 				"/>
				<rect id="XMLID_421_" x="193.417" y="88.167" style="fill:none;" width="25.667" height="8.25"/>
				
					<text id="XMLID_6_" transform="matrix(1 0 0 1 202.015 93.3604)" style="fill:#311A68; font-family:'Montserrat-Medium'; font-size:7px;">Q1</text>
				<rect id="XMLID_419_" x="192.333" y="47.958" style="fill:none;" width="25.667" height="6.875"/>
				
					<text id="XMLID_192_" transform="matrix(1 0 0 1 196.6411 53.1525)" style="fill:#311A68; font-family:'Montserrat-Medium'; font-size:7px;">$432</text>
				<rect id="XMLID_417_" x="266.5" y="60.292" style="fill:none;" width="25.667" height="6.875"/>
				
					<text id="XMLID_194_" transform="matrix(1 0 0 1 271.8542 65.4854)" style="fill:#311A68; font-family:'Montserrat-Medium'; font-size:7px;">$321</text>
				<rect id="XMLID_415_" x="344.5" y="33.625" style="fill:none;" width="25.667" height="6.875"/>
				
					<text id="XMLID_196_" transform="matrix(1 0 0 1 348.8322 38.8187)" style="fill:#311A68; font-family:'Montserrat-Medium'; font-size:7px;">$626</text>
				<rect id="XMLID_413_" x="416.833" y="46.792" style="fill:none;" width="25.667" height="6.875"/>
				
					<text id="XMLID_198_" transform="matrix(1 0 0 1 421.1475 51.9854)" style="fill:#311A68; font-family:'Montserrat-Medium'; font-size:7px;">$503</text>
				<rect id="XMLID_411_" x="268.667" y="88.167" style="fill:none;" width="25.667" height="8.25"/>
				
					<text id="XMLID_5_" transform="matrix(1 0 0 1 276.5511 93.3604)" style="fill:#311A68; font-family:'Montserrat-Medium'; font-size:7px;">Q2</text>
				<rect id="XMLID_409_" x="344.667" y="88.167" style="fill:none;" width="25.667" height="8.25"/>
				
					<text id="XMLID_188_" transform="matrix(1 0 0 1 352.5579 93.3604)" style="fill:#311A68; font-family:'Montserrat-Medium'; font-size:7px;">Q3</text>
				<rect id="XMLID_407_" x="418" y="88.167" style="fill:none;" width="25.667" height="8.25"/>
				
					<text id="XMLID_190_" transform="matrix(1 0 0 1 425.5524 93.3604)" style="fill:#311A68; font-family:'Montserrat-Medium'; font-size:7px;">Q4</text>
			</g>
		</g>
		<g id="XMLID_292_">
			<rect id="XMLID_135_" x="176" y="268.492" style="fill:#FFFFFF;" width="147.206" height="99.841"/>
			<g id="XMLID_267_">
				<g id="XMLID_213_">
					
						<rect id="XMLID_00000051361724247272344170000003818681681280735406_" x="188.024" y="277.945" style="fill:none;" width="75.427" height="6.68"/>
					<text transform="matrix(1 0 0 1 188.0244 283.8809)" style="fill:#311A68; font-family:'Montserrat-Medium'; font-size:8px;">Elementum</text>
				</g>
				<g id="XMLID_202_">
					<rect id="XMLID_201_" x="187.417" y="300.577" style="fill:#F4F4F4;" width="122.671" height="5.101"/>
					<rect id="XMLID_200_" x="187.417" y="300.577" style="fill:#311A68;" width="67.449" height="5.101"/>
				</g>
				<g id="XMLID_209_">
					<rect id="XMLID_204_" x="187.417" y="318.877" style="fill:#F4F4F4;" width="122.671" height="5.101"/>
					<rect id="XMLID_203_" x="187.417" y="318.877" style="fill:#311A68;" width="88.663" height="5.101"/>
				</g>
				<g id="XMLID_210_">
					<rect id="XMLID_206_" x="187.417" y="337.176" style="fill:#F4F4F4;" width="122.671" height="5.101"/>
					<rect id="XMLID_205_" x="187.417" y="337.176" style="fill:#311A68;" width="82.51" height="5.101"/>
				</g>
				<g id="XMLID_211_">
					<rect id="XMLID_208_" x="187.417" y="355.476" style="fill:#F4F4F4;" width="122.671" height="5.101"/>
					<rect id="XMLID_207_" x="187.417" y="355.476" style="fill:#311A68;" width="105.506" height="5.101"/>
				</g>
				<rect id="XMLID_375_" x="186.667" y="292.333" style="fill:none;" width="73.667" height="8.583"/>
				
					<text id="XMLID_238_" transform="matrix(1 0 0 1 186.6665 297.527)" style="fill:#BCBCBC; font-family:'Montserrat-Light'; font-size:7px;">Torquent</text>
				<rect id="XMLID_373_" x="186.667" y="310.5" style="fill:none;" width="73.667" height="8.583"/>
				
					<text id="XMLID_240_" transform="matrix(1 0 0 1 186.6665 315.6947)" style="fill:#BCBCBC; font-family:'Montserrat-Light'; font-size:7px;">Conubia</text>
				<rect id="XMLID_371_" x="186.667" y="328.333" style="fill:none;" width="73.667" height="8.583"/>
				
					<text id="XMLID_242_" transform="matrix(1 0 0 1 186.6665 333.527)" style="fill:#BCBCBC; font-family:'Montserrat-Light'; font-size:7px;">Nostra</text>
				<rect id="XMLID_369_" x="186.667" y="348.167" style="fill:none;" width="73.667" height="8.583"/>
				
					<text id="XMLID_244_" transform="matrix(1 0 0 1 186.6665 353.3613)" style="fill:#BCBCBC; font-family:'Montserrat-Light'; font-size:7px;">Mauris</text>
			</g>
		</g>
		<g id="XMLID_291_">
			<rect id="XMLID_233_" x="332.333" y="268.492" style="fill:#311A68;" width="147.206" height="99.841"/>
			<g id="XMLID_237_">
				<rect id="XMLID_364_" x="344.357" y="277.945" style="fill:none;" width="75.427" height="6.68"/>
				
					<text id="XMLID_227_" transform="matrix(1 0 0 1 344.3574 283.8808)" style="fill:#FFFFFF; font-family:'Montserrat-Medium'; font-size:8px;">Lacina</text>
				<g id="XMLID_224_">
					<rect id="XMLID_226_" x="343.75" y="300.577" style="fill:#3D298E;" width="122.671" height="5.101"/>
					<rect id="XMLID_225_" x="343.75" y="300.577" style="fill:#FFFFFF;" width="91.75" height="5.101"/>
				</g>
				<g id="XMLID_221_">
					<rect id="XMLID_223_" x="343.75" y="318.877" style="fill:#3D298E;" width="122.671" height="5.101"/>
					<rect id="XMLID_222_" x="343.75" y="318.877" style="fill:#FFFFFF;" width="88.663" height="5.101"/>
				</g>
				<g id="XMLID_218_">
					<rect id="XMLID_220_" x="343.75" y="337.176" style="fill:#3D298E;" width="122.671" height="5.101"/>
					<rect id="XMLID_219_" x="343.75" y="337.176" style="fill:#FFFFFF;" width="82.51" height="5.101"/>
				</g>
				<g id="XMLID_215_">
					<rect id="XMLID_217_" x="343.75" y="355.476" style="fill:#3D298E;" width="122.671" height="5.101"/>
					<rect id="XMLID_216_" x="343.75" y="355.476" style="fill:#FFFFFF;" width="105.505" height="5.101"/>
				</g>
				<g id="XMLID_248_">
					
						<rect id="XMLID_00000174567295575405716510000015951847125300318638_" x="343.333" y="292.333" style="fill:none;" width="73.667" height="8.583"/>
					<text transform="matrix(1 0 0 1 343.3332 297.527)" style="fill:#BCBCBC; font-family:'Montserrat-Light'; font-size:7px;">Fusce</text>
				</g>
				<rect id="XMLID_341_" x="343.333" y="310.5" style="fill:none;" width="73.667" height="8.583"/>
				
					<text id="XMLID_250_" transform="matrix(1 0 0 1 343.3332 315.6947)" style="fill:#BCBCBC; font-family:'Montserrat-Light'; font-size:7px;">Effictur</text>
				<rect id="XMLID_338_" x="344.417" y="328.333" style="fill:none;" width="73.667" height="8.583"/>
				
					<text id="XMLID_252_" transform="matrix(1 0 0 1 344.417 333.527)" style="fill:#BCBCBC; font-family:'Montserrat-Light'; font-size:7px;">Turpis</text>
				<rect id="XMLID_332_" x="343.667" y="348.167" style="fill:none;" width="73.667" height="8.583"/>
				
					<text id="XMLID_254_" transform="matrix(1 0 0 1 343.667 353.3613)" style="fill:#BCBCBC; font-family:'Montserrat-Light'; font-size:7px;">Vitae</text>
			</g>
		</g>
		<g id="XMLID_295_">
			<rect id="XMLID_228_" x="176" y="381.742" style="fill:#FFFFFF;" width="82" height="80.841"/>
			<g id="XMLID_285_">
				<g id="XMLID_256_">
					
						<rect id="XMLID_00000021102483705178414290000007240116824761030589_" x="188.024" y="391.279" style="fill:none;" width="37.76" height="6.68"/>
					<text transform="matrix(1 0 0 1 188.0245 397.2141)" style="fill:#311A68; font-family:'Montserrat-Medium'; font-size:8px;">Pharetra</text>
				</g>
				<g id="XMLID_257_">
					
						<rect id="XMLID_00000036242059993907499320000015212727915400643500_" x="188.024" y="414.279" style="fill:none;" width="54.593" height="13.013"/>
					<text transform="matrix(1 0 0 1 188.0245 425.4081)" style="fill:#311A68; font-family:'Montserrat-Bold'; font-size:15px;">1,253</text>
				</g>
				<g id="XMLID_258_">
					
						<rect id="XMLID_261_" x="190.356" y="440.187" transform="matrix(0.7072 0.7071 -0.7071 0.7072 368.4557 -5.4584)" style="fill:#46C602;" width="0.922" height="3.795"/>
					
						<rect id="XMLID_259_" x="192.388" y="440.187" transform="matrix(-0.7071 0.7071 -0.7071 -0.7071 641.815 618.3204)" style="fill:#46C602;" width="0.922" height="3.795"/>
				</g>
				<g id="XMLID_263_">
					
						<rect id="XMLID_00000115509460896641983180000007234436584150146484_" x="197.583" y="439.167" style="fill:none;" width="38.083" height="6.667"/>
					<text transform="matrix(1 0 0 1 197.5835 444.3617)" style="fill:#BCBCBC; font-family:'Montserrat-Light'; font-size:7px;">23%</text>
				</g>
			</g>
		</g>
		<g id="XMLID_294_">
			<rect id="XMLID_229_" x="286.5" y="381.742" style="fill:#FFFFFF;" width="82" height="80.841"/>
			<g id="XMLID_272_">
				<g id="XMLID_269_">
					
						<rect id="XMLID_275_" x="299.325" y="440.187" transform="matrix(0.7072 0.7071 -0.7071 0.7072 400.366 -82.5049)" style="fill:#46C602;" width="0.922" height="3.795"/>
					
						<rect id="XMLID_274_" x="301.357" y="440.187" transform="matrix(-0.7072 0.7071 -0.7071 -0.7072 827.8282 541.3084)" style="fill:#46C602;" width="0.922" height="3.795"/>
				</g>
				<g id="XMLID_278_">
					
						<rect id="XMLID_00000140720404067415055240000000723190288806453657_" x="296.024" y="391.279" style="fill:none;" width="37.76" height="6.68"/>
					<text transform="matrix(1 0 0 1 296.0245 397.2141)" style="fill:#311A68; font-family:'Montserrat-Medium'; font-size:8px;">Pulvinar</text>
				</g>
				<g id="XMLID_273_">
					
						<rect id="XMLID_00000048497476872230631070000006153918337179645080_" x="296.024" y="414.279" style="fill:none;" width="54.593" height="13.013"/>
					<text transform="matrix(1 0 0 1 296.0245 425.4081)" style="fill:#311A68; font-family:'Montserrat-Bold'; font-size:15px;">68 (4)</text>
				</g>
				<g id="XMLID_265_">
					
						<rect id="XMLID_00000044179689431853345950000009833739276176076190_" x="305.583" y="439.167" style="fill:none;" width="38.083" height="6.667"/>
					<text transform="matrix(1 0 0 1 305.583 444.3617)" style="fill:#BCBCBC; font-family:'Montserrat-Light'; font-size:7px;">38%</text>
				</g>
			</g>
		</g>
		<g id="XMLID_293_">
			<rect id="XMLID_230_" x="397" y="381.742" style="fill:#FFFFFF;" width="82" height="80.841"/>
			<g id="XMLID_271_">
				<g id="XMLID_304_">
					
						<rect id="XMLID_308_" x="411.023" y="440.187" transform="matrix(-0.7072 -0.7071 0.7071 -0.7072 389.8864 1045.6501)" style="fill:#EF1630;" width="0.922" height="3.795"/>
					
						<rect id="XMLID_305_" x="408.992" y="440.187" transform="matrix(0.7072 -0.707 0.707 0.7072 -192.673 418.9576)" style="fill:#EF1630;" width="0.922" height="3.795"/>
				</g>
				<g id="XMLID_298_">
					
						<rect id="XMLID_00000132088934730511818020000012779079497504363416_" x="405.691" y="391.279" style="fill:none;" width="37.76" height="6.68"/>
					<text transform="matrix(1 0 0 1 405.6902 397.2141)" style="fill:#311A68; font-family:'Montserrat-Medium'; font-size:8px;">Sapien</text>
				</g>
				<g id="XMLID_284_">
					
						<rect id="XMLID_00000090975169649865730430000001163698182253618330_" x="405.691" y="414.279" style="fill:none;" width="54.593" height="13.013"/>
					<text transform="matrix(1 0 0 1 405.6902 425.4081)" style="fill:#311A68; font-family:'Montserrat-Bold'; font-size:15px;">157</text>
				</g>
				<g id="XMLID_276_">
					
						<rect id="XMLID_00000041986443306880856210000014523612184589380772_" x="415.25" y="439.167" style="fill:none;" width="38.083" height="6.667"/>
					<text transform="matrix(1 0 0 1 415.2502 444.3617)" style="fill:#BCBCBC; font-family:'Montserrat-Light'; font-size:7px;">6%</text>
				</g>
			</g>
		</g>
		<rect id="XMLID_17_" x="56.667" y="424.667" style="fill:none;" width="34.667" height="12.333"/>
		
			<text id="XMLID_289_" transform="matrix(1 0 0 1 56.6665 430.5286)" style="fill:#F4F4F4; font-family:'Montserrat-Regular'; font-size:7.8997px;">Back</text>
	</g>
</g>
<g id="DESIGNED_BY_FREEPIK">
	<g>
		<g>
			<path style="fill:#B2B2B2;" d="M179.93,484.013v-0.161c-0.218,0.249-0.432,0.452-0.644,0.608
				c-0.211,0.157-0.441,0.276-0.689,0.357c-0.247,0.082-0.517,0.122-0.81,0.122c-0.388,0-0.747-0.082-1.078-0.246
				c-0.33-0.164-0.616-0.399-0.857-0.704c-0.242-0.305-0.425-0.662-0.549-1.074c-0.124-0.412-0.187-0.857-0.187-1.335
				c0-1.013,0.247-1.804,0.742-2.369c0.495-0.565,1.146-0.848,1.953-0.848c0.467,0,0.861,0.081,1.181,0.24
				c0.321,0.16,0.633,0.408,0.938,0.739v-2.392c0-0.333,0.066-0.583,0.199-0.754c0.132-0.17,0.321-0.255,0.567-0.255
				c0.245,0,0.434,0.078,0.567,0.234c0.133,0.157,0.199,0.386,0.199,0.691v7.147c0,0.309-0.071,0.54-0.214,0.694
				c-0.143,0.154-0.326,0.231-0.552,0.231c-0.222,0-0.405-0.08-0.549-0.24C180.002,484.537,179.93,484.309,179.93,484.013z
				 M176.742,481.632c0,0.439,0.068,0.813,0.205,1.122c0.137,0.309,0.324,0.541,0.561,0.697c0.238,0.157,0.497,0.236,0.778,0.236
				c0.285,0,0.545-0.075,0.781-0.223c0.235-0.148,0.423-0.376,0.564-0.682c0.141-0.307,0.211-0.691,0.211-1.149
				c0-0.432-0.07-0.803-0.211-1.114c-0.14-0.31-0.33-0.548-0.57-0.712c-0.24-0.164-0.502-0.245-0.786-0.245
				c-0.297,0-0.562,0.084-0.796,0.252c-0.234,0.168-0.415,0.409-0.543,0.724C176.806,480.852,176.742,481.216,176.742,481.632z"/>
			<path style="fill:#B2B2B2;" d="M187.076,482.042h-3.169c0.004,0.367,0.078,0.692,0.223,0.973
				c0.144,0.281,0.336,0.493,0.576,0.635c0.24,0.143,0.504,0.213,0.793,0.213c0.194,0,0.371-0.022,0.531-0.067
				c0.161-0.046,0.316-0.117,0.466-0.214c0.15-0.096,0.289-0.201,0.415-0.312c0.126-0.111,0.29-0.262,0.493-0.452
				c0.083-0.071,0.202-0.107,0.357-0.107c0.166,0,0.3,0.046,0.403,0.137c0.103,0.092,0.155,0.219,0.155,0.386
				c0,0.147-0.058,0.317-0.172,0.513c-0.116,0.196-0.289,0.384-0.52,0.564c-0.232,0.18-0.522,0.329-0.873,0.448
				c-0.35,0.119-0.753,0.178-1.208,0.178c-1.04,0-1.85-0.297-2.428-0.89c-0.578-0.593-0.866-1.399-0.866-2.416
				c0-0.479,0.071-0.923,0.213-1.332c0.143-0.41,0.351-0.761,0.623-1.054c0.273-0.293,0.609-0.517,1.01-0.674
				c0.4-0.156,0.843-0.234,1.33-0.234c0.633,0,1.176,0.133,1.629,0.4c0.454,0.267,0.794,0.612,1.019,1.035
				c0.225,0.424,0.339,0.856,0.339,1.294c0,0.408-0.117,0.672-0.35,0.794C187.828,481.981,187.5,482.042,187.076,482.042z
				 M183.906,481.122h2.938c-0.039-0.554-0.189-0.969-0.448-1.244c-0.259-0.275-0.6-0.413-1.024-0.413
				c-0.404,0-0.735,0.139-0.994,0.418C184.119,480.162,183.962,480.576,183.906,481.122z"/>
			<path style="fill:#B2B2B2;" d="M194.46,482.819c0,0.447-0.108,0.831-0.327,1.149c-0.217,0.319-0.539,0.56-0.965,0.725
				c-0.425,0.164-0.943,0.246-1.552,0.246c-0.582,0-1.08-0.089-1.496-0.267c-0.415-0.178-0.722-0.401-0.92-0.667
				c-0.198-0.268-0.297-0.535-0.297-0.805c0-0.178,0.063-0.33,0.19-0.457c0.126-0.126,0.287-0.19,0.481-0.19
				c0.17,0,0.3,0.041,0.391,0.124c0.091,0.083,0.178,0.2,0.261,0.35c0.166,0.29,0.366,0.504,0.597,0.648
				c0.231,0.142,0.547,0.214,0.947,0.214c0.324,0,0.59-0.073,0.798-0.217c0.208-0.145,0.311-0.31,0.311-0.496
				c0-0.285-0.107-0.492-0.324-0.622c-0.216-0.131-0.571-0.256-1.066-0.375c-0.558-0.138-1.012-0.284-1.362-0.436
				c-0.35-0.151-0.63-0.353-0.84-0.602c-0.21-0.25-0.315-0.557-0.315-0.92c0-0.324,0.097-0.631,0.291-0.92
				c0.194-0.288,0.48-0.519,0.859-0.691c0.377-0.173,0.833-0.259,1.368-0.259c0.419,0,0.797,0.043,1.131,0.131
				c0.335,0.086,0.614,0.204,0.837,0.35c0.224,0.146,0.394,0.308,0.51,0.486c0.117,0.178,0.175,0.352,0.175,0.523
				c0,0.185-0.062,0.338-0.187,0.457c-0.124,0.118-0.301,0.178-0.532,0.178c-0.166,0-0.308-0.048-0.424-0.143
				c-0.117-0.095-0.25-0.237-0.401-0.427c-0.123-0.158-0.266-0.285-0.433-0.38c-0.166-0.095-0.392-0.142-0.677-0.142
				c-0.293,0-0.536,0.062-0.73,0.187c-0.194,0.124-0.291,0.279-0.291,0.465c0,0.171,0.071,0.31,0.213,0.419
				c0.143,0.109,0.334,0.2,0.576,0.27c0.242,0.071,0.573,0.158,0.997,0.261c0.502,0.123,0.913,0.27,1.232,0.44
				c0.318,0.17,0.56,0.371,0.725,0.603C194.378,482.258,194.46,482.522,194.46,482.819z"/>
			<path style="fill:#B2B2B2;" d="M196.116,477.596c-0.225,0-0.418-0.07-0.579-0.208c-0.16-0.138-0.24-0.334-0.24-0.588
				c0-0.23,0.082-0.418,0.246-0.567c0.164-0.149,0.355-0.223,0.573-0.223c0.21,0,0.396,0.067,0.558,0.202
				c0.162,0.135,0.244,0.33,0.244,0.588c0,0.25-0.08,0.444-0.238,0.585C196.521,477.525,196.333,477.596,196.116,477.596z
				 M196.917,479.27v4.683c0,0.325-0.077,0.571-0.232,0.737c-0.155,0.166-0.35,0.249-0.588,0.249c-0.238,0-0.431-0.085-0.579-0.255
				c-0.149-0.17-0.222-0.414-0.222-0.73v-4.636c0-0.32,0.074-0.561,0.222-0.724c0.148-0.162,0.341-0.243,0.579-0.243
				c0.238,0,0.433,0.081,0.588,0.243C196.84,478.755,196.917,478.981,196.917,479.27z"/>
			<path style="fill:#B2B2B2;" d="M204.017,479.537v4.707c0,0.538-0.058,1.001-0.173,1.39c-0.114,0.387-0.298,0.708-0.552,0.961
				c-0.253,0.253-0.585,0.441-0.994,0.563c-0.41,0.123-0.919,0.184-1.529,0.184c-0.558,0-1.057-0.078-1.496-0.234
				c-0.439-0.157-0.777-0.358-1.015-0.605c-0.237-0.247-0.356-0.502-0.356-0.763c0-0.198,0.067-0.359,0.202-0.483
				c0.134-0.125,0.297-0.187,0.486-0.187c0.237,0,0.445,0.105,0.623,0.314c0.087,0.107,0.177,0.216,0.27,0.324
				c0.093,0.109,0.197,0.202,0.309,0.28c0.113,0.076,0.248,0.134,0.406,0.172c0.158,0.037,0.341,0.056,0.546,0.056
				c0.42,0,0.745-0.058,0.977-0.175c0.232-0.117,0.394-0.28,0.487-0.49c0.093-0.209,0.147-0.433,0.163-0.673
				s0.027-0.624,0.035-1.155c-0.25,0.349-0.537,0.615-0.864,0.797c-0.326,0.182-0.715,0.273-1.166,0.273
				c-0.542,0-1.016-0.138-1.422-0.416c-0.405-0.277-0.717-0.665-0.934-1.163c-0.218-0.499-0.326-1.074-0.326-1.727
				c0-0.486,0.066-0.927,0.198-1.318c0.133-0.393,0.322-0.723,0.567-0.992c0.245-0.269,0.528-0.472,0.849-0.608
				c0.32-0.136,0.673-0.204,1.057-0.204c0.459,0,0.857,0.089,1.193,0.264c0.336,0.177,0.649,0.453,0.938,0.829v-0.22
				c0-0.281,0.069-0.498,0.208-0.653c0.139-0.154,0.317-0.231,0.535-0.231c0.313,0,0.52,0.103,0.623,0.306
				C203.965,478.859,204.017,479.153,204.017,479.537z M199.321,481.591c0,0.657,0.143,1.154,0.43,1.49
				c0.287,0.337,0.658,0.505,1.113,0.505c0.269,0,0.523-0.073,0.762-0.217c0.24-0.145,0.435-0.362,0.585-0.653
				c0.15-0.291,0.225-0.644,0.225-1.06c0-0.66-0.145-1.176-0.436-1.543c-0.291-0.368-0.674-0.552-1.149-0.552
				c-0.463,0-0.834,0.176-1.113,0.529C199.46,480.441,199.321,480.942,199.321,481.591z"/>
			<path style="fill:#B2B2B2;" d="M206.592,479.246v0.196c0.285-0.376,0.596-0.652,0.935-0.828c0.338-0.176,0.727-0.264,1.166-0.264
				c0.428,0,0.809,0.093,1.146,0.28c0.336,0.186,0.588,0.449,0.753,0.789c0.108,0.198,0.176,0.413,0.208,0.641
				c0.032,0.23,0.048,0.522,0.048,0.879v3.015c0,0.325-0.074,0.571-0.223,0.737c-0.148,0.166-0.341,0.249-0.579,0.249
				c-0.242,0-0.437-0.085-0.588-0.255c-0.151-0.17-0.225-0.414-0.225-0.73v-2.701c0-0.534-0.075-0.943-0.223-1.226
				c-0.149-0.283-0.444-0.425-0.888-0.425c-0.288,0-0.552,0.086-0.789,0.258c-0.237,0.173-0.412,0.41-0.522,0.71
				c-0.079,0.242-0.119,0.692-0.119,1.353v2.03c0,0.328-0.077,0.576-0.228,0.74c-0.152,0.164-0.349,0.246-0.59,0.246
				c-0.234,0-0.425-0.085-0.576-0.255c-0.15-0.17-0.225-0.414-0.225-0.73v-4.683c0-0.309,0.067-0.54,0.202-0.692
				c0.135-0.152,0.319-0.228,0.552-0.228c0.143,0,0.272,0.034,0.387,0.101c0.114,0.068,0.207,0.168,0.276,0.302
				C206.557,478.887,206.592,479.052,206.592,479.246z"/>
			<path style="fill:#B2B2B2;" d="M216.451,482.042h-3.17c0.004,0.367,0.078,0.692,0.223,0.973c0.144,0.281,0.336,0.493,0.576,0.635
				c0.239,0.143,0.503,0.213,0.792,0.213c0.194,0,0.371-0.022,0.532-0.067c0.16-0.046,0.315-0.117,0.466-0.214
				c0.15-0.096,0.288-0.201,0.416-0.312c0.126-0.111,0.29-0.262,0.492-0.452c0.083-0.071,0.202-0.107,0.356-0.107
				c0.166,0,0.301,0.046,0.404,0.137c0.103,0.092,0.154,0.219,0.154,0.386c0,0.147-0.057,0.317-0.172,0.513
				c-0.115,0.196-0.288,0.384-0.52,0.564c-0.232,0.18-0.522,0.329-0.872,0.448c-0.35,0.119-0.753,0.178-1.208,0.178
				c-1.041,0-1.85-0.297-2.428-0.89c-0.577-0.593-0.866-1.399-0.866-2.416c0-0.479,0.071-0.923,0.214-1.332
				c0.143-0.41,0.351-0.761,0.624-1.054c0.273-0.293,0.609-0.517,1.009-0.674c0.399-0.156,0.843-0.234,1.33-0.234
				c0.633,0,1.175,0.133,1.629,0.4c0.454,0.267,0.793,0.612,1.019,1.035c0.225,0.424,0.338,0.856,0.338,1.294
				c0,0.408-0.117,0.672-0.35,0.794C217.203,481.981,216.875,482.042,216.451,482.042z M213.281,481.122h2.938
				c-0.039-0.554-0.189-0.969-0.448-1.244c-0.259-0.275-0.6-0.413-1.024-0.413c-0.404,0-0.736,0.139-0.995,0.418
				C213.493,480.162,213.337,480.576,213.281,481.122z"/>
			<path style="fill:#B2B2B2;" d="M223.057,484.013v-0.161c-0.218,0.249-0.432,0.452-0.644,0.608
				c-0.212,0.157-0.441,0.276-0.689,0.357c-0.247,0.082-0.517,0.122-0.81,0.122c-0.389,0-0.747-0.082-1.078-0.246
				c-0.331-0.164-0.616-0.399-0.858-0.704c-0.242-0.305-0.424-0.662-0.549-1.074c-0.125-0.412-0.187-0.857-0.187-1.335
				c0-1.013,0.247-1.804,0.742-2.369c0.495-0.565,1.146-0.848,1.953-0.848c0.467,0,0.861,0.081,1.181,0.24
				c0.321,0.16,0.633,0.408,0.938,0.739v-2.392c0-0.333,0.067-0.583,0.199-0.754c0.132-0.17,0.322-0.255,0.567-0.255
				c0.245,0,0.434,0.078,0.567,0.234c0.132,0.157,0.199,0.386,0.199,0.691v7.147c0,0.309-0.071,0.54-0.214,0.694
				c-0.142,0.154-0.326,0.231-0.552,0.231c-0.222,0-0.405-0.08-0.549-0.24C223.129,484.537,223.057,484.309,223.057,484.013z
				 M219.87,481.632c0,0.439,0.068,0.813,0.204,1.122c0.136,0.309,0.324,0.541,0.561,0.697c0.237,0.157,0.496,0.236,0.777,0.236
				c0.285,0,0.546-0.075,0.781-0.223c0.236-0.148,0.424-0.376,0.564-0.682c0.141-0.307,0.211-0.691,0.211-1.149
				c0-0.432-0.07-0.803-0.211-1.114c-0.14-0.31-0.33-0.548-0.57-0.712c-0.24-0.164-0.502-0.245-0.787-0.245
				c-0.296,0-0.562,0.084-0.795,0.252c-0.233,0.168-0.414,0.409-0.543,0.724C219.934,480.852,219.87,481.216,219.87,481.632z"/>
			<path style="fill:#B2B2B2;" d="M229.681,476.865v2.475c0.304-0.316,0.615-0.559,0.932-0.727c0.316-0.168,0.709-0.252,1.175-0.252
				c0.538,0,1.01,0.128,1.416,0.382c0.405,0.256,0.72,0.626,0.944,1.111c0.223,0.484,0.336,1.06,0.336,1.725
				c0,0.491-0.063,0.94-0.187,1.35c-0.125,0.41-0.306,0.765-0.543,1.065c-0.238,0.301-0.525,0.534-0.864,0.698
				c-0.339,0.164-0.712,0.246-1.119,0.246c-0.25,0-0.484-0.029-0.703-0.089c-0.22-0.059-0.407-0.137-0.561-0.234
				c-0.154-0.096-0.286-0.197-0.395-0.3c-0.109-0.103-0.253-0.258-0.431-0.463v0.161c0,0.305-0.073,0.535-0.22,0.692
				c-0.146,0.156-0.332,0.234-0.558,0.234c-0.23,0-0.413-0.077-0.549-0.234c-0.137-0.157-0.205-0.388-0.205-0.692v-7.077
				c0-0.328,0.066-0.577,0.198-0.745c0.133-0.168,0.318-0.252,0.555-0.252c0.25,0,0.441,0.08,0.576,0.24
				C229.613,476.34,229.681,476.568,229.681,476.865z M229.758,481.68c0,0.645,0.148,1.14,0.442,1.486
				c0.295,0.347,0.682,0.521,1.161,0.521c0.407,0,0.759-0.177,1.053-0.532c0.295-0.355,0.442-0.862,0.442-1.523
				c0-0.427-0.061-0.796-0.184-1.104c-0.123-0.309-0.297-0.548-0.522-0.715c-0.226-0.168-0.489-0.252-0.79-0.252
				c-0.309,0-0.584,0.084-0.825,0.252c-0.242,0.168-0.431,0.411-0.57,0.73C229.827,480.861,229.758,481.24,229.758,481.68z"/>
			<path style="fill:#B2B2B2;" d="M236.585,485.141l0.148-0.363l-1.995-5.022c-0.122-0.288-0.184-0.499-0.184-0.629
				c0-0.139,0.036-0.267,0.107-0.385c0.071-0.119,0.169-0.214,0.294-0.285c0.125-0.072,0.254-0.107,0.389-0.107
				c0.233,0,0.409,0.075,0.529,0.223c0.119,0.148,0.223,0.361,0.314,0.638l1.372,3.989l1.3-3.71c0.103-0.3,0.196-0.536,0.279-0.706
				c0.083-0.17,0.171-0.285,0.264-0.344c0.093-0.06,0.225-0.09,0.395-0.09c0.123,0,0.24,0.032,0.353,0.098
				c0.113,0.065,0.2,0.153,0.261,0.264c0.061,0.111,0.092,0.227,0.092,0.35c-0.016,0.075-0.042,0.182-0.077,0.321
				c-0.036,0.138-0.079,0.28-0.13,0.421l-2.113,5.533c-0.182,0.487-0.36,0.868-0.535,1.145c-0.174,0.277-0.404,0.491-0.692,0.638
				c-0.287,0.149-0.674,0.223-1.161,0.223c-0.474,0-0.831-0.051-1.068-0.154c-0.238-0.104-0.356-0.292-0.356-0.565
				c0-0.186,0.056-0.33,0.169-0.43c0.112-0.101,0.28-0.152,0.501-0.152c0.087,0,0.173,0.012,0.256,0.037
				c0.103,0.023,0.192,0.035,0.267,0.035c0.186,0,0.333-0.028,0.44-0.084c0.106-0.055,0.202-0.151,0.288-0.288
				C236.376,485.607,236.474,485.405,236.585,485.141z"/>
		</g>
		<g>
			<path style="fill:#B2B2B2;" d="M260.061,478.49h0.386v-0.487c0-0.509,0.062-0.911,0.192-1.211
				c0.128-0.299,0.347-0.516,0.654-0.653c0.306-0.135,0.727-0.204,1.26-0.204c0.95,0,1.42,0.23,1.42,0.697
				c0,0.149-0.049,0.278-0.15,0.385c-0.096,0.106-0.214,0.16-0.349,0.16c-0.062,0-0.174-0.012-0.329-0.037
				c-0.148-0.021-0.283-0.035-0.389-0.035c-0.292,0-0.479,0.088-0.566,0.259c-0.079,0.172-0.122,0.418-0.122,0.74v0.386h0.396
				c0.62,0,0.926,0.185,0.926,0.56c0,0.262-0.079,0.432-0.245,0.503c-0.164,0.071-0.39,0.107-0.681,0.107h-0.396v4.294
				c0,0.319-0.075,0.563-0.231,0.73c-0.151,0.17-0.346,0.254-0.589,0.254c-0.229,0-0.419-0.084-0.574-0.254
				c-0.153-0.167-0.228-0.411-0.228-0.73v-4.294h-0.446c-0.243,0-0.427-0.052-0.558-0.164c-0.131-0.107-0.197-0.25-0.197-0.423
				C259.247,478.682,259.518,478.49,260.061,478.49"/>
			<path style="fill:#B2B2B2;" d="M265.367,482.598v1.355c0,0.327-0.083,0.574-0.234,0.737c-0.154,0.166-0.349,0.247-0.586,0.247
				c-0.239,0-0.43-0.082-0.579-0.25c-0.148-0.165-0.225-0.41-0.225-0.734v-4.514c0-0.729,0.262-1.093,0.788-1.093
				c0.271,0,0.464,0.084,0.583,0.255c0.118,0.171,0.184,0.421,0.198,0.755c0.192-0.334,0.39-0.584,0.593-0.755
				c0.208-0.171,0.477-0.255,0.819-0.255c0.343,0,0.67,0.084,0.991,0.255c0.322,0.171,0.482,0.398,0.482,0.678
				c0,0.197-0.069,0.363-0.204,0.488c-0.137,0.131-0.284,0.195-0.441,0.195c-0.062,0-0.207-0.039-0.433-0.112
				c-0.228-0.071-0.43-0.108-0.602-0.108c-0.237,0-0.433,0.064-0.582,0.186c-0.151,0.128-0.269,0.311-0.353,0.554
				c-0.081,0.247-0.137,0.541-0.17,0.878C265.381,481.699,265.367,482.112,265.367,482.598"/>
			<path style="fill:#B2B2B2;" d="M272.818,482.04h-3.171c0.005,0.367,0.077,0.694,0.222,0.974c0.147,0.279,0.337,0.491,0.578,0.635
				c0.24,0.142,0.502,0.212,0.793,0.212c0.194,0,0.37-0.021,0.531-0.07c0.159-0.043,0.316-0.116,0.466-0.213
				c0.151-0.095,0.288-0.199,0.415-0.313c0.126-0.109,0.292-0.26,0.494-0.449c0.084-0.071,0.203-0.109,0.355-0.109
				c0.168,0,0.301,0.046,0.406,0.139c0.104,0.092,0.152,0.219,0.152,0.386c0,0.147-0.056,0.317-0.167,0.512
				c-0.117,0.198-0.289,0.385-0.523,0.566c-0.234,0.178-0.524,0.33-0.873,0.446c-0.35,0.119-0.754,0.179-1.207,0.179
				c-1.044,0-1.852-0.295-2.429-0.889c-0.577-0.595-0.87-1.401-0.87-2.418c0-0.479,0.073-0.924,0.217-1.334
				c0.14-0.411,0.349-0.76,0.624-1.055c0.272-0.294,0.606-0.518,1.008-0.674c0.399-0.156,0.842-0.234,1.33-0.234
				c0.632,0,1.176,0.134,1.629,0.404c0.452,0.264,0.796,0.61,1.018,1.034c0.226,0.426,0.339,0.855,0.339,1.296
				c0,0.405-0.118,0.669-0.351,0.791C273.569,481.98,273.241,482.04,272.818,482.04 M269.646,481.119h2.938
				c-0.039-0.553-0.186-0.969-0.446-1.241c-0.261-0.277-0.599-0.413-1.025-0.413c-0.403,0-0.736,0.137-0.995,0.418
				C269.859,480.162,269.701,480.573,269.646,481.119"/>
			<path style="fill:#B2B2B2;" d="M279.56,482.04h-3.171c0.004,0.367,0.078,0.694,0.221,0.974c0.145,0.279,0.337,0.491,0.576,0.635
				c0.239,0.142,0.503,0.212,0.795,0.212c0.192,0,0.371-0.021,0.528-0.07c0.162-0.043,0.316-0.116,0.469-0.213
				c0.151-0.095,0.287-0.199,0.415-0.313c0.125-0.109,0.29-0.26,0.493-0.449c0.084-0.071,0.204-0.109,0.355-0.109
				c0.168,0,0.302,0.046,0.406,0.139c0.103,0.092,0.15,0.219,0.15,0.386c0,0.147-0.054,0.317-0.171,0.512
				c-0.111,0.198-0.285,0.385-0.519,0.566c-0.231,0.178-0.525,0.33-0.872,0.446c-0.348,0.119-0.755,0.179-1.209,0.179
				c-1.042,0-1.849-0.295-2.429-0.889c-0.577-0.595-0.868-1.401-0.868-2.418c0-0.479,0.073-0.924,0.217-1.334
				c0.142-0.411,0.349-0.76,0.623-1.055c0.272-0.294,0.608-0.518,1.009-0.674c0.398-0.156,0.844-0.234,1.331-0.234
				c0.63,0,1.174,0.134,1.633,0.404c0.45,0.264,0.791,0.61,1.013,1.034c0.225,0.426,0.341,0.855,0.341,1.296
				c0,0.405-0.12,0.669-0.351,0.791C280.31,481.98,279.982,482.04,279.56,482.04 M276.389,481.119h2.938
				c-0.04-0.553-0.19-0.969-0.447-1.241c-0.263-0.277-0.601-0.413-1.027-0.413c-0.403,0-0.735,0.137-0.996,0.418
				C276.6,480.162,276.441,480.573,276.389,481.119"/>
			<path style="fill:#B2B2B2;" d="M283.11,479.258v0.194c0.304-0.375,0.621-0.651,0.953-0.828c0.324-0.178,0.699-0.267,1.114-0.267
				c0.497,0,0.96,0.13,1.379,0.386c0.419,0.259,0.749,0.635,0.993,1.129c0.244,0.497,0.366,1.081,0.366,1.758
				c0,0.497-0.07,0.957-0.21,1.376c-0.14,0.417-0.336,0.767-0.581,1.05c-0.246,0.281-0.535,0.501-0.868,0.654
				c-0.339,0.151-0.695,0.227-1.08,0.227c-0.461,0-0.853-0.093-1.166-0.28c-0.314-0.183-0.614-0.458-0.901-0.816v2.433
				c0,0.71-0.26,1.069-0.778,1.069c-0.306,0-0.505-0.092-0.607-0.275c-0.095-0.187-0.146-0.452-0.146-0.807v-6.996
				c0-0.309,0.066-0.537,0.2-0.692c0.134-0.15,0.32-0.228,0.553-0.228c0.231,0,0.416,0.078,0.56,0.234
				C283.039,478.738,283.11,478.961,283.11,479.258 M286.287,481.613c0-0.428-0.067-0.796-0.197-1.102
				c-0.131-0.308-0.312-0.542-0.541-0.705c-0.23-0.164-0.489-0.248-0.77-0.248c-0.446,0-0.824,0.178-1.13,0.527
				c-0.308,0.354-0.462,0.872-0.462,1.558c0,0.642,0.153,1.146,0.46,1.504c0.305,0.358,0.679,0.536,1.133,0.536
				c0.268,0,0.519-0.079,0.748-0.233c0.232-0.158,0.416-0.392,0.552-0.704C286.217,482.434,286.287,482.055,286.287,481.613"/>
			<path style="fill:#B2B2B2;" d="M289.547,477.592c-0.226,0-0.418-0.071-0.577-0.209c-0.162-0.139-0.242-0.333-0.242-0.585
				c0-0.23,0.082-0.419,0.248-0.569c0.164-0.146,0.354-0.222,0.571-0.222c0.212,0,0.397,0.067,0.559,0.2
				c0.162,0.137,0.244,0.334,0.244,0.591c0,0.25-0.079,0.444-0.236,0.585C289.955,477.52,289.767,477.592,289.547,477.592
				 M290.35,479.266v4.689c0,0.322-0.077,0.568-0.231,0.732c-0.156,0.168-0.35,0.25-0.588,0.25c-0.238,0-0.428-0.084-0.58-0.254
				c-0.146-0.173-0.222-0.416-0.222-0.729v-4.642c0-0.319,0.076-0.559,0.222-0.721c0.152-0.165,0.342-0.245,0.58-0.245
				c0.238,0,0.432,0.079,0.588,0.245C290.272,478.753,290.35,478.98,290.35,479.266"/>
			<path style="fill:#B2B2B2;" d="M295.574,484.198l-1.428-2.354l-0.88,0.83v1.291c0,0.312-0.083,0.551-0.248,0.718
				c-0.16,0.17-0.354,0.254-0.566,0.254c-0.249,0-0.447-0.082-0.588-0.25c-0.142-0.165-0.215-0.41-0.215-0.734v-6.915
				c0-0.358,0.071-0.632,0.207-0.821c0.139-0.19,0.341-0.283,0.596-0.283c0.25,0,0.445,0.086,0.593,0.257
				c0.146,0.169,0.221,0.421,0.221,0.751v3.933l1.823-1.914c0.227-0.235,0.395-0.4,0.517-0.486c0.118-0.087,0.262-0.13,0.431-0.13
				c0.204,0,0.371,0.065,0.51,0.193c0.132,0.129,0.2,0.291,0.2,0.483c0,0.237-0.221,0.555-0.659,0.951l-0.861,0.789l1.662,2.614
				c0.121,0.196,0.212,0.34,0.265,0.441c0.052,0.099,0.081,0.2,0.081,0.289c0,0.258-0.071,0.459-0.213,0.61
				c-0.14,0.148-0.327,0.221-0.554,0.221c-0.198,0-0.352-0.051-0.458-0.16C295.904,484.669,295.755,484.475,295.574,484.198"/>
			<path style="fill:#B2B2B2;" d="M299.096,484.937c-0.245,0-0.455-0.079-0.634-0.238c-0.178-0.156-0.268-0.378-0.268-0.665
				c0-0.241,0.086-0.449,0.256-0.622c0.172-0.174,0.38-0.262,0.63-0.262c0.248,0,0.46,0.087,0.639,0.258
				c0.174,0.172,0.264,0.383,0.264,0.626c0,0.283-0.089,0.505-0.264,0.662C299.541,484.858,299.333,484.937,299.096,484.937"/>
			<path style="fill:#B2B2B2;" d="M307.158,482.931c0,0.2-0.06,0.418-0.182,0.646c-0.12,0.231-0.305,0.449-0.553,0.656
				c-0.247,0.208-0.557,0.377-0.934,0.502c-0.375,0.126-0.8,0.192-1.269,0.192c-1.004,0-1.786-0.293-2.349-0.876
				c-0.56-0.585-0.841-1.368-0.841-2.35c0-0.667,0.128-1.254,0.387-1.765c0.255-0.509,0.628-0.905,1.113-1.184
				c0.487-0.28,1.072-0.419,1.746-0.419c0.421,0,0.805,0.061,1.158,0.184c0.35,0.122,0.645,0.282,0.891,0.474
				c0.242,0.197,0.428,0.402,0.556,0.62c0.129,0.22,0.192,0.426,0.192,0.617c0,0.192-0.071,0.357-0.214,0.492
				c-0.147,0.134-0.322,0.203-0.524,0.203c-0.137,0-0.248-0.035-0.338-0.104c-0.09-0.07-0.19-0.181-0.299-0.339
				c-0.198-0.299-0.404-0.526-0.622-0.674c-0.214-0.152-0.488-0.226-0.821-0.226c-0.476,0-0.865,0.186-1.159,0.561
				c-0.292,0.372-0.439,0.887-0.439,1.534c0,0.305,0.039,0.587,0.114,0.842c0.073,0.254,0.182,0.472,0.325,0.652
				c0.144,0.179,0.315,0.315,0.516,0.409c0.203,0.096,0.425,0.141,0.665,0.141c0.326,0,0.604-0.075,0.836-0.225
				c0.235-0.151,0.439-0.38,0.616-0.689c0.099-0.182,0.205-0.323,0.318-0.427c0.114-0.102,0.256-0.156,0.422-0.156
				c0.198,0,0.363,0.077,0.491,0.227C307.091,482.6,307.158,482.762,307.158,482.931"/>
			<path style="fill:#B2B2B2;" d="M314.152,481.643c0,0.481-0.076,0.928-0.222,1.337c-0.155,0.408-0.37,0.758-0.656,1.049
				c-0.284,0.293-0.626,0.518-1.02,0.675c-0.4,0.154-0.844,0.234-1.337,0.234c-0.491,0-0.933-0.08-1.326-0.239
				c-0.389-0.156-0.732-0.384-1.016-0.676c-0.288-0.298-0.505-0.646-0.657-1.048c-0.143-0.402-0.219-0.847-0.219-1.332
				c0-0.491,0.077-0.941,0.224-1.349c0.151-0.409,0.368-0.758,0.649-1.046c0.282-0.289,0.621-0.511,1.019-0.669
				c0.402-0.156,0.844-0.234,1.326-0.234c0.49,0,0.936,0.078,1.337,0.239c0.398,0.157,0.739,0.384,1.027,0.674
				c0.286,0.297,0.502,0.643,0.65,1.045C314.077,480.711,314.152,481.154,314.152,481.643 M312.525,481.643
				c0-0.662-0.146-1.176-0.436-1.543c-0.289-0.372-0.681-0.555-1.171-0.555c-0.317,0-0.597,0.082-0.839,0.246
				c-0.242,0.163-0.425,0.406-0.556,0.727c-0.131,0.321-0.197,0.696-0.197,1.124c0,0.424,0.064,0.792,0.193,1.108
				c0.13,0.319,0.314,0.561,0.553,0.729c0.241,0.167,0.522,0.253,0.845,0.253c0.49,0,0.882-0.185,1.171-0.557
				C312.378,482.806,312.525,482.294,312.525,481.643"/>
			<path style="fill:#B2B2B2;" d="M320.334,481.762v2.154c0,0.342-0.075,0.594-0.231,0.767c-0.156,0.17-0.357,0.255-0.611,0.255
				c-0.245,0-0.446-0.085-0.594-0.255c-0.154-0.173-0.233-0.425-0.233-0.767v-2.582c0-0.408-0.013-0.726-0.04-0.953
				c-0.029-0.221-0.105-0.41-0.226-0.552c-0.123-0.147-0.318-0.22-0.582-0.22c-0.532,0-0.879,0.181-1.048,0.551
				c-0.167,0.36-0.254,0.883-0.254,1.567v2.189c0,0.336-0.076,0.591-0.226,0.765c-0.156,0.171-0.355,0.257-0.603,0.257
				c-0.247,0-0.448-0.087-0.604-0.257c-0.157-0.173-0.235-0.428-0.235-0.765v-4.637c0-0.306,0.07-0.538,0.209-0.695
				c0.143-0.16,0.329-0.239,0.556-0.239c0.223,0,0.407,0.077,0.557,0.222c0.148,0.149,0.221,0.354,0.221,0.615v0.153
				c0.283-0.334,0.584-0.582,0.903-0.738c0.323-0.162,0.676-0.241,1.07-0.241c0.407,0,0.757,0.082,1.049,0.244
				c0.294,0.163,0.533,0.41,0.725,0.735c0.275-0.33,0.568-0.577,0.881-0.738c0.313-0.161,0.658-0.241,1.039-0.241
				c0.441,0,0.826,0.089,1.146,0.262c0.319,0.174,0.558,0.425,0.717,0.747c0.138,0.295,0.206,0.756,0.206,1.385v3.164
				c0,0.342-0.076,0.594-0.229,0.767c-0.154,0.17-0.359,0.255-0.612,0.255c-0.247,0-0.446-0.087-0.603-0.257
				c-0.156-0.173-0.235-0.428-0.235-0.765v-2.726c0-0.349-0.015-0.627-0.043-0.836c-0.029-0.211-0.11-0.388-0.239-0.529
				c-0.133-0.142-0.332-0.215-0.596-0.215c-0.214,0-0.416,0.066-0.609,0.192c-0.192,0.124-0.342,0.298-0.45,0.508
				C320.396,480.584,320.334,481.068,320.334,481.762"/>
		</g>
		<g>
			<path style="fill:#B2B2B2;" d="M244.894,481.251c-0.001-0.003-0.001-0.006-0.001-0.011
				C244.893,481.245,244.893,481.248,244.894,481.251z"/>
			<path style="fill:#B2B2B2;" d="M244.976,481.769c0.001,0,0.001,0,0.001,0c-0.03-0.148-0.055-0.294-0.074-0.439
				C244.922,481.476,244.946,481.623,244.976,481.769z"/>
			<path style="fill:#B2B2B2;" d="M245.512,483.273c-0.004-0.006-0.007-0.013-0.011-0.021
				C245.505,483.259,245.508,483.267,245.512,483.273z"/>
			<path style="fill:#B2B2B2;" d="M245.461,483.173c-0.014-0.027-0.027-0.056-0.041-0.084
				C245.433,483.118,245.447,483.145,245.461,483.173z"/>
			<path style="fill:#B2B2B2;" d="M245.126,482.348c0.079,0.25,0.175,0.493,0.286,0.724c-0.113-0.236-0.206-0.479-0.284-0.724
				C245.128,482.348,245.127,482.348,245.126,482.348z"/>
			<path style="fill:#B2B2B2;" d="M251.167,475.04c0.313,0,0.544,0.025,0.809,0.069l0.075-0.477c0,0-0.732-0.225-1.694-0.147
				l-0.076-0.259c0.299-0.063,0.524-0.329,0.524-0.646c0-0.364-0.296-0.659-0.661-0.659c-0.364,0-0.66,0.295-0.66,0.659
				c0,0.317,0.224,0.583,0.522,0.646l0.084,0.289c-1.021,0.14-1.834,0.539-1.834,0.539l0.144,0.441
				c0.618-0.206,1.154-0.331,1.64-0.383C250.517,475.062,250.875,475.04,251.167,475.04z"/>
			<path style="fill:#B2B2B2;" d="M245.5,477.452l0.004-0.005c0.024-0.031,0.047-0.06,0.071-0.089l-0.196-0.141l-0.305-0.223
				c-0.017,0.024-0.497,0.465-0.876,1.28c-0.016-0.026-0.035-0.051-0.056-0.074c-0.114-0.124-0.272-0.187-0.474-0.184
				c-0.003,0-0.006,0-0.009,0c-0.125,0-0.21-0.042-0.267-0.092c0.056-0.071,0.089-0.16,0.089-0.258c0-0.23-0.187-0.418-0.418-0.418
				c-0.23,0-0.418,0.188-0.418,0.418c0,0.231,0.187,0.418,0.418,0.418c0.036,0,0.071-0.006,0.104-0.013
				c0.103,0.114,0.266,0.214,0.505,0.209c0.123-0.001,0.213,0.03,0.273,0.097c0.069,0.076,0.093,0.185,0.1,0.267
				c-0.001,0.001-0.001,0.003-0.002,0.003c-0.272,0.743-0.194,1.669-0.194,1.669l0.661,0.026c0.013-0.337,0.062-0.926,0.232-1.394
				C245.071,478.042,245.483,477.476,245.5,477.452z"/>
			<path style="fill:#B2B2B2;" d="M256.917,475.593c-0.23,0-0.418,0.187-0.418,0.418c0,0.036,0.006,0.07,0.015,0.103
				c-0.115,0.104-0.214,0.267-0.211,0.507c0.002,0.123-0.03,0.212-0.096,0.273c-0.053,0.047-0.12,0.072-0.185,0.088
				c-0.492-0.689-1.097-1.11-1.097-1.11l-0.474,0.508c0.358,0.326,0.725,0.734,1.08,1.244c0.246,0.352,0.499,0.806,0.71,1.259
				l0.64-0.304c0,0-0.292-0.722-0.704-1.37c0.072-0.025,0.144-0.064,0.207-0.12c0.125-0.113,0.187-0.273,0.183-0.474
				c-0.001-0.13,0.042-0.218,0.093-0.276c0.071,0.054,0.16,0.089,0.258,0.089c0.232,0,0.419-0.187,0.419-0.418
				C257.336,475.78,257.149,475.593,256.917,475.593z"/>
			<path style="fill:#B2B2B2;" d="M255.256,481.344c-0.881,0.429-2.33,0.996-4.238,1.262c-0.749,0.104-1.475,0.142-2.143,0.142
				c-0.869,0-1.637-0.065-2.226-0.139c-0.673-0.085-1.199-0.189-1.52-0.261c0.077,0.245,0.171,0.488,0.284,0.724
				c0.002,0.006,0.005,0.013,0.008,0.017c0.013,0.027,0.027,0.056,0.041,0.084c0.013,0.027,0.027,0.054,0.041,0.079
				c0.004,0.007,0.007,0.015,0.011,0.021c0.189,0.357,0.417,0.684,0.675,0.968c0.9,0.984,1.817,1.14,1.826,1.141l0.014,0.002
				l0.013,0.005c0.008,0.003,0.821,0.266,2.057,0.266c1.216,0,2.409-0.245,3.546-0.729c0.842-0.431,1.639-1.085,2.034-1.669
				c0.305-0.452,0.526-0.933,0.656-1.434c0.07-0.266,0.124-0.692,0.092-1.141C256.178,480.849,255.786,481.086,255.256,481.344z"/>
			<path style="fill:#B2B2B2;" d="M245.783,477.661c-0.026,0.037-0.408,0.578-0.71,1.408c-0.226,0.622-0.216,1.527-0.216,1.538
				v0.002c0,0.212,0.012,0.423,0.035,0.632c0,0.005,0,0.008,0.001,0.011c0.002,0.027,0.007,0.052,0.009,0.079
				c0.019,0.145,0.043,0.291,0.074,0.439c0.438,0.111,3.049,0.72,5.968,0.314c1.829-0.255,3.218-0.795,4.062-1.204
				c0.701-0.34,1.151-0.648,1.325-0.774c-0.173-0.643-0.651-1.65-1.089-2.279c-1.253-1.791-2.604-2.25-3.298-2.365
				c-0.265-0.043-0.477-0.068-0.777-0.068c-0.28,0-0.626,0.022-1.089,0.071c-0.465,0.048-0.982,0.17-1.583,0.372
				c-0.842,0.282-1.605,0.724-2.204,1.28l-0.021,0.019C246.182,477.217,245.996,477.389,245.783,477.661z M253.451,477.244
				c0.601,0,1.089,0.488,1.089,1.09c0,0.601-0.489,1.09-1.089,1.09c-0.601,0-1.089-0.489-1.089-1.09
				C252.362,477.732,252.85,477.244,253.451,477.244z M248.3,477.2c0.973,0,1.76,0.789,1.76,1.761s-0.788,1.759-1.76,1.759
				c-0.972,0-1.76-0.787-1.76-1.759S247.329,477.2,248.3,477.2z"/>
		</g>
	</g>
</g>
</svg>
