<svg width="70" height="70" viewBox="0 0 70 70" fill="none" xmlns="http://www.w3.org/2000/svg">
<path d="M53.5938 60.1562H64.5312V39.375C64.5312 38.2147 64.0703 37.1019 63.2498 36.2814C62.4294 35.4609 61.3166 35 60.1562 35H36.0938C34.9334 35 33.8206 35.4609 33.0002 36.2814C32.1797 37.1019 31.7188 38.2147 31.7188 39.375V60.1562H42.6562C42.658 60.7359 42.889 61.2913 43.2989 61.7011C43.7087 62.111 44.2641 62.342 44.8438 62.3438H51.4062C51.9859 62.342 52.5413 62.111 52.9511 61.7011C53.361 61.2913 53.592 60.7359 53.5938 60.1562ZM36.0938 54.6875V41.5625C36.0955 40.9829 36.3265 40.4275 36.7364 40.0176C37.1462 39.6078 37.7016 39.3767 38.2812 39.375H57.9688C58.5484 39.3767 59.1038 39.6078 59.5136 40.0176C59.9235 40.4275 60.1545 40.9829 60.1562 41.5625V54.6875H36.0938Z" fill="#BDDBFF"/>
<path d="M18.5938 33.9062C27.0506 33.9062 33.9062 27.0506 33.9062 18.5938C33.9062 10.1369 27.0506 3.28125 18.5938 3.28125C10.1369 3.28125 3.28125 10.1369 3.28125 18.5938C3.28125 27.0506 10.1369 33.9062 18.5938 33.9062Z" fill="#BDDBFF"/>
<path d="M12.5709 16.9925L10 19.4888L15.1436 24.4831C15.4846 24.8141 15.947 25 16.4291 25C16.9112 25 17.3736 24.8141 17.7145 24.4831L28 14.4963L25.4291 12L16.4291 20.7387L12.5709 16.9925Z" fill="#3485FF"/>
<path d="M18.5937 35C21.8386 35 25.0106 34.0378 27.7086 32.2351C30.4066 30.4323 32.5094 27.87 33.7511 24.8722C34.9929 21.8743 35.3178 18.5756 34.6847 15.3931C34.0517 12.2106 32.4892 9.28724 30.1947 6.99279C27.9003 4.69833 24.9769 3.13579 21.7944 2.50275C18.6119 1.86971 15.3132 2.19461 12.3153 3.43636C9.3175 4.67811 6.75519 6.78094 4.95245 9.47893C3.14971 12.1769 2.1875 15.3489 2.1875 18.5938C2.19242 22.9435 3.92251 27.1136 6.99821 30.1893C10.0739 33.265 14.244 34.9951 18.5937 35ZM18.5937 4.37501C21.4059 4.37501 24.155 5.20892 26.4933 6.7713C28.8315 8.33367 30.654 10.5543 31.7301 13.1525C32.8063 15.7506 33.0879 18.6095 32.5393 21.3677C31.9906 24.1259 30.6364 26.6594 28.6479 28.6479C26.6594 30.6365 24.1258 31.9907 21.3677 32.5393C18.6095 33.0879 15.7506 32.8063 13.1525 31.7302C10.5543 30.654 8.33366 28.8315 6.77129 26.4933C5.20891 24.155 4.375 21.406 4.375 18.5938C4.37934 14.824 5.87878 11.21 8.54437 8.54438C11.21 5.87879 14.824 4.37935 18.5937 4.37501Z" fill="#3485FF"/>
<path d="M66.7188 59.0625H65.625V39.375C65.625 37.9246 65.0488 36.5336 64.0232 35.508C62.9977 34.4824 61.6067 33.9062 60.1562 33.9062H36.0938C34.6433 33.9062 33.2523 34.4824 32.2268 35.508C31.2012 36.5336 30.625 37.9246 30.625 39.375V59.0625H29.5312C29.2412 59.0625 28.963 59.1777 28.7579 59.3829C28.5527 59.588 28.4375 59.8662 28.4375 60.1562V64.5312C28.4401 65.4007 28.7866 66.2338 29.4014 66.8486C30.0162 67.4634 30.8493 67.8099 31.7188 67.8125H64.5312C65.4007 67.8099 66.2338 67.4634 66.8486 66.8486C67.4634 66.2338 67.8099 65.4007 67.8125 64.5312V60.1562C67.8125 59.8662 67.6973 59.588 67.4921 59.3829C67.287 59.1777 67.0088 59.0625 66.7188 59.0625ZM32.8125 39.375C32.8151 38.5056 33.1616 37.6725 33.7764 37.0577C34.3912 36.4429 35.2243 36.0963 36.0938 36.0938H60.1562C61.0257 36.0963 61.8588 36.4429 62.4736 37.0577C63.0884 37.6725 63.4349 38.5056 63.4375 39.375V59.0625H53.5938C53.3037 59.0625 53.0255 59.1777 52.8204 59.3829C52.6152 59.588 52.5 59.8662 52.5 60.1562C52.5 60.4463 52.3848 60.7245 52.1796 60.9296C51.9745 61.1348 51.6963 61.25 51.4062 61.25H44.8438C44.5537 61.25 44.2755 61.1348 44.0704 60.9296C43.8652 60.7245 43.75 60.4463 43.75 60.1562C43.75 59.8662 43.6348 59.588 43.4296 59.3829C43.2245 59.1777 42.9463 59.0625 42.6562 59.0625H32.8125V39.375ZM65.625 64.5312C65.625 64.8213 65.5098 65.0995 65.3046 65.3046C65.0995 65.5098 64.8213 65.625 64.5312 65.625H31.7188C31.4287 65.625 31.1505 65.5098 30.9454 65.3046C30.7402 65.0995 30.625 64.8213 30.625 64.5312V61.25H41.7484C41.9766 61.8888 42.3963 62.4416 42.9503 62.8331C43.5042 63.2246 44.1654 63.4356 44.8438 63.4375H51.4062C52.0846 63.4356 52.7458 63.2246 53.2997 62.8331C53.8537 62.4416 54.2734 61.8888 54.5016 61.25H65.625V64.5312Z" fill="#3485FF"/>
<path d="M45.9375 57.9688H50.3125V60.1562H45.9375V57.9688Z" fill="#3485FF"/>
<path d="M32.8125 62.3438H35V64.5312H32.8125V62.3438Z" fill="#57A4FF"/>
<path d="M37.1875 62.3438H39.375V64.5312H37.1875V62.3438Z" fill="#57A4FF"/>
<path d="M56.875 62.3438H59.0625V64.5312H56.875V62.3438Z" fill="#57A4FF"/>
<path d="M61.25 62.3438H63.4375V64.5312H61.25V62.3438Z" fill="#57A4FF"/>
<path d="M57.9688 38.2812H38.2812C37.4118 38.2838 36.5787 38.6304 35.9639 39.2452C35.3491 39.86 35.0026 40.6931 35 41.5625V54.6875C35 54.9776 35.1152 55.2558 35.3204 55.4609C35.5255 55.666 35.8037 55.7812 36.0938 55.7812H60.1562C60.4463 55.7812 60.7245 55.666 60.9296 55.4609C61.1348 55.2558 61.25 54.9776 61.25 54.6875V41.5625C61.2474 40.6931 60.9009 39.86 60.2861 39.2452C59.6713 38.6304 58.8382 38.2838 57.9688 38.2812ZM59.0625 53.5938H37.1875V41.5625C37.1875 41.2724 37.3027 40.9942 37.5079 40.7891C37.713 40.584 37.9912 40.4688 38.2812 40.4688H57.9688C58.2588 40.4688 58.537 40.584 58.7421 40.7891C58.9473 40.9942 59.0625 41.2724 59.0625 41.5625V53.5938Z" fill="#3485FF"/>
<path d="M28.117 47.3517L23.742 42.9767L22.1955 44.5232L24.7034 47.0312H10.9375V49.2187H24.7034L22.1955 51.7267L23.742 53.2732L28.117 48.8982C28.3221 48.6931 28.4373 48.415 28.4373 48.125C28.4373 47.8349 28.3221 47.5568 28.117 47.3517Z" fill="#3485FF"/>
<path d="M37.508 19.367L41.883 23.742L43.4295 22.1954L40.9216 19.6875H59.0625V17.5H40.9216L43.4295 14.992L41.883 13.4454L37.508 17.8204C37.3029 18.0255 37.1877 18.3037 37.1877 18.5937C37.1877 18.8837 37.3029 19.1619 37.508 19.367Z" fill="#3485FF"/>
<path d="M35 7.65625H37.1875V9.84375H35V7.65625Z" fill="#57A4FF"/>
<path d="M39.375 7.65625H41.5625V9.84375H39.375V7.65625Z" fill="#57A4FF"/>
<path d="M43.75 7.65625H45.9375V9.84375H43.75V7.65625Z" fill="#57A4FF"/>
<path d="M48.125 7.65625H50.3125V9.84375H48.125V7.65625Z" fill="#57A4FF"/>
<path d="M52.5 7.65625H54.6875V9.84375H52.5V7.65625Z" fill="#57A4FF"/>
<path d="M56.875 7.65625H59.0625V9.84375H56.875V7.65625Z" fill="#57A4FF"/>
<path d="M61.25 7.65625H63.4375V9.84375H61.25V7.65625Z" fill="#57A4FF"/>
<path d="M61.25 12.0312H63.4375V14.2188H61.25V12.0312Z" fill="#57A4FF"/>
<path d="M61.25 16.4062H63.4375V18.5938H61.25V16.4062Z" fill="#57A4FF"/>
<path d="M61.25 20.7812H63.4375V22.9688H61.25V20.7812Z" fill="#57A4FF"/>
<path d="M61.25 25.1562H63.4375V27.3438H61.25V25.1562Z" fill="#57A4FF"/>
<path d="M61.25 29.5312H63.4375V31.7188H61.25V29.5312Z" fill="#57A4FF"/>
<path d="M24.0625 56.875H26.25V59.0625H24.0625V56.875Z" fill="#57A4FF"/>
<path d="M19.6875 56.875H21.875V59.0625H19.6875V56.875Z" fill="#57A4FF"/>
<path d="M15.3125 56.875H17.5V59.0625H15.3125V56.875Z" fill="#57A4FF"/>
<path d="M10.9375 56.875H13.125V59.0625H10.9375V56.875Z" fill="#57A4FF"/>
<path d="M6.5625 56.875H8.75V59.0625H6.5625V56.875Z" fill="#57A4FF"/>
<path d="M6.5625 52.5H8.75V54.6875H6.5625V52.5Z" fill="#57A4FF"/>
<path d="M6.5625 48.125H8.75V50.3125H6.5625V48.125Z" fill="#57A4FF"/>
<path d="M6.5625 43.75H8.75V45.9375H6.5625V43.75Z" fill="#57A4FF"/>
<path d="M6.5625 39.375H8.75V41.5625H6.5625V39.375Z" fill="#57A4FF"/>
<path d="M6.5625 35H8.75V37.1875H6.5625V35Z" fill="#57A4FF"/>
</svg>
