<svg width="70" height="70" viewBox="0 0 70 70" fill="none" xmlns="http://www.w3.org/2000/svg">
<path d="M35 60.5281L51.1437 44.3515C52.9564 42.5541 54.3959 40.416 55.3795 38.0603C56.3631 35.7046 56.8713 33.1778 56.875 30.625V14.2187L35 7.84216L13.125 14.2187V30.625C13.1281 33.1752 13.635 35.6998 14.6167 38.0535C15.5984 40.4073 17.0354 42.5439 18.8453 44.3406L35 60.5281Z" fill="#BDDBFF"/>
<path fill-rule="evenodd" clip-rule="evenodd" d="M39.8 33.8125H38.6V32.1262C39.6682 31.6626 40.5772 30.9017 41.2164 29.9361C41.8555 28.9704 42.1973 27.8418 42.2 26.6875V21.9375C42.2 20.3628 41.5679 18.8526 40.4426 17.7391C39.3174 16.6256 37.7913 16 36.2 16H33.8C32.2087 16 30.6826 16.6256 29.5574 17.7391C28.4321 18.8526 27.8 20.3628 27.8 21.9375V26.6875C27.8027 27.8418 28.1445 28.9704 28.7836 29.9361C29.4228 30.9017 30.3318 31.6626 31.4 32.1262V33.8125H30.2C28.2904 33.8125 26.4591 34.5632 25.1088 35.8994C23.7586 37.2356 23 39.0478 23 40.9375H25.4C25.4 39.6777 25.9057 38.4695 26.8059 37.5787C27.7061 36.6879 28.927 36.1875 30.2 36.1875H32.348C32.7451 36.621 33.2437 36.9513 33.8 37.1494V40.9375H36.2V37.1494C36.7563 36.9513 37.2549 36.621 37.652 36.1875H39.8C41.073 36.1875 42.2939 36.6879 43.1941 37.5787C44.0943 38.4695 44.6 39.6777 44.6 40.9375H47C47 39.0478 46.2414 37.2356 44.8912 35.8994C43.5409 34.5632 41.7096 33.8125 39.8 33.8125ZM33.8 18.375H36.2C37.1066 18.3786 37.9785 18.7205 38.6414 19.3325C39.3043 19.9445 39.7095 20.7815 39.776 21.6762L35.24 20.7738C35.082 20.7381 34.918 20.7381 34.76 20.7738L30.224 21.6762C30.2905 20.7815 30.6957 19.9445 31.3586 19.3325C32.0215 18.7205 32.8934 18.3786 33.8 18.375ZM30.2 26.6875V24.0987L35 23.1488L39.8 24.0987V26.6875C39.7972 27.6315 39.417 28.536 38.7424 29.2035C38.0679 29.8709 37.1539 30.2472 36.2 30.25H33.8C32.8461 30.2472 31.9321 29.8709 31.2576 29.2035C30.583 28.536 30.2028 27.6315 30.2 26.6875ZM36.2 32.625V33.8125C36.1966 34.0199 36.1432 34.2235 36.044 34.4062C35.913 34.635 35.709 34.8143 35.4639 34.9159C35.2189 35.0176 34.9467 35.0359 34.69 34.968C34.4333 34.9001 34.2067 34.7498 34.0456 34.5407C33.8845 34.3315 33.7981 34.0754 33.8 33.8125V32.625H36.2Z" fill="#3485FF"/>
<path d="M18.0698 45.1172L34.2256 61.3047C34.3272 61.4066 34.4479 61.4874 34.5808 61.5425C34.7137 61.5977 34.8561 61.626 35 61.626C35.1439 61.626 35.2863 61.5977 35.4192 61.5425C35.5521 61.4874 35.6728 61.4066 35.7744 61.3047L51.9247 45.1216C53.8372 43.2224 55.3557 40.964 56.3929 38.4763C57.4301 35.9885 57.9657 33.3204 57.9688 30.625V14.2188C57.9688 13.9821 57.892 13.7519 57.75 13.5625C57.608 13.3732 57.4084 13.235 57.1812 13.1688L35.3062 6.78893C35.1064 6.72986 34.8936 6.72986 34.6937 6.78893L12.8188 13.1688C12.5916 13.235 12.392 13.3732 12.25 13.5625C12.108 13.7519 12.0312 13.9821 12.0312 14.2188V30.625C12.0338 33.3191 12.5686 35.9862 13.6049 38.473C14.6411 40.9598 16.1585 43.2174 18.0698 45.1161V45.1172ZM14.2188 15.0391L35 8.97753L55.7812 15.0391V30.625C55.7776 33.0336 55.2981 35.4178 54.3703 37.6405C53.4425 39.8633 52.0847 41.8808 50.3748 43.5772L35 58.9783L19.6197 43.5728C17.9112 41.8766 16.5545 39.8596 15.6277 37.6377C14.7008 35.4157 14.222 33.0326 14.2188 30.625V15.0391Z" fill="#3485FF"/>
<path d="M66.7188 35H61.9391C62.2004 33.5561 62.3358 32.0923 62.3438 30.625V10.9375C62.3438 10.7008 62.267 10.4705 62.125 10.2812C61.983 10.0919 61.7834 9.95372 61.5562 9.88745L35.3062 2.2312C35.1057 2.17651 34.8943 2.17651 34.6937 2.2312L8.44375 9.88745C8.21656 9.95372 8.01699 10.0919 7.875 10.2812C7.73301 10.4705 7.65625 10.7008 7.65625 10.9375V30.625C7.66417 32.0923 7.79957 33.5561 8.06094 35H3.28125C2.99117 35 2.71297 35.1152 2.50785 35.3203C2.30273 35.5254 2.1875 35.8036 2.1875 36.0937V66.7187C2.1875 67.0088 2.30273 67.287 2.50785 67.4921C2.71297 67.6972 2.99117 67.8124 3.28125 67.8124H66.7188C67.0088 67.8124 67.287 67.6972 67.4921 67.4921C67.6973 67.287 67.8125 67.0088 67.8125 66.7187V36.0937C67.8125 35.8036 67.6973 35.5254 67.4921 35.3203C67.287 35.1152 67.0088 35 66.7188 35ZM4.375 65.6249V37.1875H8.56406C9.70919 41.3525 11.918 45.1481 14.9734 48.2015V48.2124L32.3641 65.6249H4.375ZM16.5266 46.6593C14.4106 44.5592 12.7309 42.0613 11.584 39.3095C10.4371 36.5577 9.84566 33.6062 9.84375 30.625V11.7578L35 4.4187L60.1562 11.7578V30.625C60.1543 33.6062 59.5629 36.5577 58.416 39.3095C57.2691 42.0613 55.5894 44.5592 53.4734 46.6593L35 65.1656L16.5266 46.6593ZM65.625 65.6249H37.6359L55.0266 48.2015C58.082 45.1481 60.2908 41.3525 61.4359 37.1875H65.625V65.6249Z" fill="#3485FF"/>
<path d="M8.75 58.1066V55.7812H6.5625V59.0625C6.5625 59.3526 6.67773 59.6308 6.88285 59.8359C7.08797 60.041 7.36617 60.1562 7.65625 60.1562C8.23641 60.1562 8.79281 60.3867 9.20305 60.797C9.61328 61.2072 9.84375 61.7636 9.84375 62.3438C9.84375 62.6338 9.95898 62.912 10.1641 63.1171C10.3692 63.3223 10.6474 63.4375 10.9375 63.4375H14.2188V61.25H11.8923C11.6956 60.4939 11.3006 59.8039 10.7482 59.2514C10.1959 58.6988 9.50606 58.3036 8.75 58.1066Z" fill="#3485FF"/>
<path d="M61.25 58.1066C60.4939 58.3036 59.8041 58.6988 59.2518 59.2514C58.6994 59.8039 58.3044 60.4939 58.1077 61.25H55.7812V63.4375H59.0625C59.3526 63.4375 59.6308 63.3223 59.8359 63.1171C60.041 62.912 60.1562 62.6338 60.1562 62.3438C60.1562 61.7636 60.3867 61.2072 60.797 60.797C61.2072 60.3867 61.7636 60.1562 62.3438 60.1562C62.6338 60.1562 62.912 60.041 63.1171 59.8359C63.3223 59.6308 63.4375 59.3526 63.4375 59.0625V55.7812H61.25V58.1066Z" fill="#3485FF"/>
</svg>
