<?xml version="1.0" encoding="utf-8"?>
<!-- Generator: Adobe Illustrator 27.5.0, SVG Export Plug-In . SVG Version: 6.00 Build 0)  -->
<svg version="1.1" xmlns="http://www.w3.org/2000/svg" xmlns:xlink="http://www.w3.org/1999/xlink" x="0px" y="0px"
	 viewBox="0 0 750 500" style="enable-background:new 0 0 750 500;" xml:space="preserve">
<g id="BACKGROUND">
	<rect style="fill:#E2DCCC;" width="750" height="500"/>
</g>
<g id="OBJECTS">
	<g>
		<g>
			<g>
				<path style="fill:#FFFFFF;" d="M201.161,167.79H25.979c-4.648,0-8.417-3.768-8.417-8.417v-126.5
					c0-4.648,3.768-8.417,8.417-8.417h175.182c4.648,0,8.417,3.768,8.417,8.417v126.5
					C209.578,164.022,205.809,167.79,201.161,167.79z"/>
				<g>
					
						<text transform="matrix(1 0 0 1 33.5541 47.4345)" style="fill:#A7A9AC; font-family:'Montserrat-Medium'; font-size:11.7698px;">Lorem Ipsum</text>
					<g>
						<g>
							<path style="fill:#E7E5E6;" d="M189.586,66.623H37.554c-2.209,0-4-1.791-4-4l0,0c0-2.209,1.791-4,4-4h152.031
								c2.209,0,4,1.791,4,4l0,0C193.586,64.832,191.795,66.623,189.586,66.623z"/>
						</g>
						<g>
							<path style="fill:#19C3CC;" d="M131.419,66.623H37.554c-2.209,0-4-1.791-4-4l0,0c0-2.209,1.791-4,4-4h93.865
								c2.209,0,4,1.791,4,4l0,0C135.419,64.832,133.628,66.623,131.419,66.623z"/>
						</g>
						<g>
							<path style="fill:#E7E5E6;" d="M189.586,88.623H37.554c-2.209,0-4-1.791-4-4l0,0c0-2.209,1.791-4,4-4h152.031
								c2.209,0,4,1.791,4,4l0,0C193.586,86.832,191.795,88.623,189.586,88.623z"/>
						</g>
						<g>
							<path style="fill:#19C3CC;" d="M95.586,88.623H37.554c-2.209,0-4-1.791-4-4l0,0c0-2.209,1.791-4,4-4h58.031
								c2.209,0,4,1.791,4,4l0,0C99.586,86.832,97.795,88.623,95.586,88.623z"/>
						</g>
						<g>
							<path style="fill:#E7E5E6;" d="M189.586,110.623H37.554c-2.209,0-4-1.791-4-4l0,0c0-2.209,1.791-4,4-4h152.031
								c2.209,0,4,1.791,4,4l0,0C193.586,108.832,191.795,110.623,189.586,110.623z"/>
						</g>
						<g>
							<path style="fill:#25AAB7;" d="M180.003,110.623H37.554c-2.209,0-4-1.791-4-4l0,0c0-2.209,1.791-4,4-4h142.448
								c2.209,0,4,1.791,4,4l0,0C184.002,108.832,182.212,110.623,180.003,110.623z"/>
						</g>
						<g>
							<path style="fill:#E7E5E6;" d="M189.586,132.623H37.554c-2.209,0-4-1.791-4-4l0,0c0-2.209,1.791-4,4-4h152.031
								c2.209,0,4,1.791,4,4l0,0C193.586,130.833,191.795,132.623,189.586,132.623z"/>
						</g>
						<g>
							<path style="fill:#2A9EAD;" d="M64.669,132.623H37.554c-2.209,0-4-1.791-4-4l0,0c0-2.209,1.791-4,4-4h27.115
								c2.209,0,4,1.791,4,4l0,0C68.669,130.833,66.878,132.623,64.669,132.623z"/>
						</g>
						<g>
							<path style="fill:#E7E5E6;" d="M189.586,154.623H37.554c-2.209,0-4-1.791-4-4l0,0c0-2.209,1.791-4,4-4h152.031
								c2.209,0,4,1.791,4,4l0,0C193.586,152.833,191.795,154.623,189.586,154.623z"/>
						</g>
						<g>
							<path style="fill:#3091A2;" d="M152.878,154.623H37.554c-2.209,0-4-1.791-4-4l0,0c0-2.209,1.791-4,4-4h115.324
								c2.209,0,4,1.791,4,4l0,0C156.878,152.833,155.088,154.623,152.878,154.623z"/>
						</g>
					</g>
				</g>
			</g>
			<g>
				<g>
					<path style="fill:#FFFFFF;" d="M724.021,167.79H557.834c-4.648,0-8.417-3.768-8.417-8.417v-126.5
						c0-4.648,3.768-8.417,8.417-8.417h166.187c4.648,0,8.417,3.768,8.417,8.417v126.5
						C732.438,164.022,728.669,167.79,724.021,167.79z"/>
				</g>
				<g>
					<g>
						<g>
							<g>
								<path style="fill:#E7E5E6;" d="M614.456,152.355c-26.136,0-47.398-21.263-47.398-47.398
									c0-26.135,21.263-47.398,47.398-47.398s47.398,21.263,47.398,47.398C661.854,131.092,640.592,152.355,614.456,152.355z
									 M614.456,62.559c-23.379,0-42.398,19.02-42.398,42.398c0,23.379,19.02,42.398,42.398,42.398s42.398-19.02,42.398-42.398
									C656.854,81.578,637.835,62.559,614.456,62.559z"/>
							</g>
							<g>
								<path style="fill:#E7E5E6;" d="M614.456,142.022c-20.438,0-37.065-16.628-37.065-37.066
									c0-20.438,16.628-37.065,37.065-37.065s37.065,16.628,37.065,37.065C651.521,125.395,634.894,142.022,614.456,142.022z
									 M614.456,72.891c-17.681,0-32.065,14.384-32.065,32.065c0,17.681,14.385,32.066,32.065,32.066
									c17.681,0,32.065-14.384,32.065-32.066C646.521,87.275,632.137,72.891,614.456,72.891z"/>
							</g>
							<g>
								<path style="fill:#E7E5E6;" d="M614.456,130.501c-14.085,0-25.544-11.459-25.544-25.544
									c0-14.084,11.459-25.543,25.544-25.543c6.03,0,11.885,2.142,16.484,6.03c5.758,4.869,9.06,11.981,9.06,19.513
									C640,119.041,628.541,130.501,614.456,130.501z M614.456,84.413c-11.328,0-20.544,9.216-20.544,20.543
									c0,11.328,9.216,20.544,20.544,20.544c11.328,0,20.544-9.216,20.544-20.544c0-6.058-2.656-11.779-7.288-15.695
									C624.014,86.135,619.307,84.413,614.456,84.413z"/>
							</g>
						</g>
						<g>
							<g>
								<path style="fill:#3091A2;" d="M614.456,152.355c-26.136,0-47.398-21.263-47.398-47.398
									c0-26.135,21.263-47.398,47.398-47.398c0.96,0,1.93,0.029,2.881,0.086c1.379,0.083,2.429,1.267,2.346,2.646
									c-0.082,1.377-1.265,2.426-2.644,2.346c-0.853-0.051-1.721-0.077-2.582-0.077c-23.379,0-42.398,19.02-42.398,42.398
									c0,23.379,19.02,42.398,42.398,42.398c15.441,0,29.675-8.407,37.146-21.94c0.669-1.209,2.19-1.646,3.396-0.98
									c1.209,0.667,1.648,2.188,0.98,3.396C647.629,142.958,631.718,152.355,614.456,152.355z"/>
							</g>
							<g>
								<path style="fill:#23A9B7;" d="M614.456,142.022c-20.438,0-37.065-16.628-37.065-37.066
									c0-18.396,13.173-33.798,31.322-36.622c1.371-0.215,2.643,0.722,2.855,2.086c0.212,1.364-0.722,2.642-2.086,2.854
									c-15.698,2.443-27.092,15.767-27.092,31.682c0,17.681,14.385,32.066,32.065,32.066c16.08,0,29.751-12.006,31.801-27.928
									c0.177-1.369,1.428-2.337,2.799-2.16c1.369,0.176,2.337,1.429,2.16,2.799C648.846,128.141,633.043,142.022,614.456,142.022z
									"/>
							</g>
							<g>
								<path style="fill:#19C3CC;" d="M614.456,130.501c-14.085,0-25.544-11.459-25.544-25.544
									c0-14.084,11.459-25.543,25.544-25.543l0.475,0.004c1.381,0.029,2.477,1.171,2.447,2.552
									c-0.028,1.38-1.149,2.472-2.551,2.447l-0.371-0.003c-11.328,0-20.544,9.216-20.544,20.543
									c0,11.328,9.216,20.544,20.544,20.544c9.538,0,17.97-6.745,20.049-16.038c0.301-1.348,1.637-2.198,2.985-1.894
									c1.348,0.301,2.195,1.638,1.894,2.985C636.798,122.112,626.314,130.501,614.456,130.501z"/>
							</g>
						</g>
					</g>
					<g>
						<g>
							<path style="fill:#3091A2;" d="M682.901,126.365L682.901,126.365c-1.872,0-3.39-1.518-3.39-3.39l0,0
								c0-1.872,1.518-3.39,3.39-3.39l0,0c1.872,0,3.39,1.518,3.39,3.39l0,0C686.291,124.848,684.773,126.365,682.901,126.365z"/>
							<path style="fill:#23A9B7;" d="M682.901,138.11L682.901,138.11c-1.872,0-3.39-1.518-3.39-3.39l0,0
								c0-1.872,1.518-3.39,3.39-3.39l0,0c1.872,0,3.39,1.518,3.39,3.39l0,0C686.291,136.592,684.773,138.11,682.901,138.11z"/>
							<path style="fill:#19C3CC;" d="M682.901,149.855L682.901,149.855c-1.872,0-3.39-1.518-3.39-3.39l0,0
								c0-1.872,1.518-3.39,3.39-3.39l0,0c1.872,0,3.39,1.518,3.39,3.39l0,0C686.291,148.337,684.773,149.855,682.901,149.855z"/>
						</g>
						<g>
							<g>
								
									<text transform="matrix(1 0 0 1 688.267 135.8704)" style="fill:#A7A9AC; font-family:'Montserrat-Medium'; font-size:4.4987px;">Lorem Ipsum</text>
							</g>
							<g>
								
									<text transform="matrix(1 0 0 1 688.267 124.2821)" style="fill:#A7A9AC; font-family:'Montserrat-Medium'; font-size:4.4987px;">Lorem Ipsum</text>
							</g>
							<g>
								
									<text transform="matrix(1 0 0 1 688.267 147.7983)" style="fill:#A7A9AC; font-family:'Montserrat-Medium'; font-size:4.4987px;">Lorem Ipsum</text>
							</g>
						</g>
					</g>
					<g>
						
							<text transform="matrix(1 0 0 1 600.9993 45.7678)" style="fill:#A7A9AC; font-family:'Montserrat-Medium'; font-size:11.7698px;">Lorem Ipsum</text>
					</g>
				</g>
			</g>
			<g>
				<g>
					<path style="fill:#FFFFFF;" d="M528.688,167.79H228.271c-4.648,0-8.417-3.768-8.417-8.417v-126.5
						c0-4.648,3.768-8.417,8.417-8.417h300.417c4.648,0,8.417,3.768,8.417,8.417v126.5
						C537.104,164.022,533.336,167.79,528.688,167.79z"/>
					<g>
						
							<text transform="matrix(1 0 0 1 235.8458 47.4345)" style="fill:#A7A9AC; font-family:'Montserrat-Medium'; font-size:11.7698px;">Lorem Ipsum</text>
					</g>
				</g>
				<g>
					<g>
						<g>
							<path style="fill:#E7E5E6;" d="M518.505,61.124H238.246c-0.276,0-0.5-0.224-0.5-0.5c0-0.276,0.224-0.5,0.5-0.5h280.259
								c0.276,0,0.5,0.224,0.5,0.5C519.005,60.9,518.781,61.124,518.505,61.124z"/>
						</g>
						<g>
							<path style="fill:#E7E5E6;" d="M518.505,83.081H238.246c-0.276,0-0.5-0.224-0.5-0.5c0-0.276,0.224-0.5,0.5-0.5h280.259
								c0.276,0,0.5,0.224,0.5,0.5C519.005,82.858,518.781,83.081,518.505,83.081z"/>
						</g>
						<g>
							<path style="fill:#E7E5E6;" d="M518.505,105.04H238.246c-0.276,0-0.5-0.224-0.5-0.5c0-0.276,0.224-0.5,0.5-0.5h280.259
								c0.276,0,0.5,0.224,0.5,0.5C519.005,104.816,518.781,105.04,518.505,105.04z"/>
						</g>
						<g>
							<path style="fill:#E7E5E6;" d="M518.505,126.998H238.246c-0.276,0-0.5-0.224-0.5-0.5c0-0.276,0.224-0.5,0.5-0.5h280.259
								c0.276,0,0.5,0.224,0.5,0.5C519.005,126.775,518.781,126.998,518.505,126.998z"/>
						</g>
						<g>
							<path style="fill:#E7E5E6;" d="M518.505,148.956H238.246c-0.276,0-0.5-0.224-0.5-0.5c0-0.276,0.224-0.5,0.5-0.5h280.259
								c0.276,0,0.5,0.224,0.5,0.5C519.005,148.733,518.781,148.956,518.505,148.956z"/>
						</g>
					</g>
					<g>
						<path style="fill:#19C3CC;" d="M518.712,70.957l-47.93,3.947c-5.791,0.477-11.621,0.041-17.276-1.292l-37.18-8.763
							c-8.076-1.903-16.475-1.971-24.581-0.197l-41.637,9.111c-8.108,1.774-16.51,1.706-24.588-0.199l-20.441-4.821
							c-13.078-3.085-26.831-1.317-38.704,4.976l-28.128,14.906v59.833h280.258L518.712,70.957z"/>
						<path style="fill:#25AAB7;" d="M518.712,93.123l-37.731-6.547c-12.269-2.129-24.897-0.067-35.851,5.852l-19.066,10.303
							c-13.992,7.561-30.557,8.752-45.487,3.27l-18.014-6.615c-15.673-5.755-33.104-4.144-47.457,4.386l-13.395,7.961
							c-10.946,6.505-23.797,9.047-36.394,7.197l-27.071-3.974v33.5h280.258L518.712,93.123z"/>
						<path style="fill:#3091A2;" d="M518.712,122.956l-46.68-8.649c-6.606-1.224-13.379-1.238-19.989-0.04l-40.171,7.275
							c-5.183,0.939-10.473,1.134-15.712,0.581l-44.401-4.691c-9.167-0.969-18.431,0.363-26.955,3.874l-22.452,9.249
							c-11.383,4.689-24.003,5.458-35.871,2.186l-28.235-7.786v23.501h280.258L518.712,122.956z"/>
					</g>
				</g>
			</g>
			<g>
				<g>
					<g>
						<path style="fill:#FFFFFF;" d="M326.396,323.134H25.979c-4.648,0-8.417-3.768-8.417-8.417v-126.5
							c0-4.648,3.768-8.417,8.417-8.417h300.417c4.648,0,8.417,3.768,8.417,8.417v126.5
							C334.813,319.366,331.044,323.134,326.396,323.134z"/>
						<g>
							
								<text transform="matrix(1 0 0 1 33.5541 202.7789)" style="fill:#A7A9AC; font-family:'Montserrat-Medium'; font-size:11.7698px;">Lorem Ipsum</text>
						</g>
					</g>
					<g>
						<g>
							<g>
								<path style="fill:#E7E5E6;" d="M316.213,216.468H35.955c-0.276,0-0.5-0.224-0.5-0.5c0-0.276,0.224-0.5,0.5-0.5h280.258
									c0.276,0,0.5,0.224,0.5,0.5C316.713,216.244,316.489,216.468,316.213,216.468z"/>
							</g>
							<g>
								<path style="fill:#E7E5E6;" d="M316.213,238.426H35.955c-0.276,0-0.5-0.224-0.5-0.5c0-0.276,0.224-0.5,0.5-0.5h280.258
									c0.276,0,0.5,0.224,0.5,0.5C316.713,238.203,316.489,238.426,316.213,238.426z"/>
							</g>
							<g>
								<path style="fill:#E7E5E6;" d="M316.213,260.385H35.955c-0.276,0-0.5-0.224-0.5-0.5c0-0.276,0.224-0.5,0.5-0.5h280.258
									c0.276,0,0.5,0.224,0.5,0.5C316.713,260.161,316.489,260.385,316.213,260.385z"/>
							</g>
							<g>
								<path style="fill:#E7E5E6;" d="M316.213,282.343H35.955c-0.276,0-0.5-0.224-0.5-0.5c0-0.276,0.224-0.5,0.5-0.5h280.258
									c0.276,0,0.5,0.224,0.5,0.5C316.713,282.119,316.489,282.343,316.213,282.343z"/>
							</g>
							<g>
								<path style="fill:#E7E5E6;" d="M316.213,304.301H35.955c-0.276,0-0.5-0.224-0.5-0.5c0-0.276,0.224-0.5,0.5-0.5h280.258
									c0.276,0,0.5,0.224,0.5,0.5C316.713,304.077,316.489,304.301,316.213,304.301z"/>
							</g>
						</g>
					</g>
				</g>
				<g>
					<g>
						<g>
							<polygon style="fill:#19C3CC;" points="201.052,288.607 200.674,288.246 149.93,239.823 99.002,265.558 98.767,265.419 
								47.768,235.433 48.274,234.571 99.039,264.419 150.11,238.612 200.987,287.162 251.845,228.99 303.143,242.233 
								302.893,243.202 252.192,230.112 							"/>
						</g>
					</g>
					<g>
						<path style="fill:#19C3CC;" d="M52.854,234.384c0,2.669-2.164,4.833-4.833,4.833c-2.669,0-4.833-2.164-4.833-4.833
							s2.164-4.833,4.833-4.833C50.69,229.551,52.854,231.715,52.854,234.384z"/>
						<path style="fill:#19C3CC;" d="M103.854,264.989c0,2.669-2.164,4.833-4.833,4.833c-2.669,0-4.833-2.164-4.833-4.833
							c0-2.669,2.164-4.833,4.833-4.833C101.69,260.155,103.854,262.319,103.854,264.989z"/>
						<path style="fill:#19C3CC;" d="M154.853,239.218c0,2.669-2.164,4.833-4.833,4.833c-2.669,0-4.833-2.164-4.833-4.833
							c0-2.669,2.164-4.833,4.833-4.833C152.689,234.384,154.853,236.548,154.853,239.218z"/>
						<path style="fill:#19C3CC;" d="M205.853,287.884c0,2.669-2.164,4.833-4.833,4.833c-2.669,0-4.833-2.164-4.833-4.833
							s2.164-4.833,4.833-4.833C203.689,283.051,205.853,285.215,205.853,287.884z"/>
						<path style="fill:#19C3CC;" d="M256.852,229.551c0,2.669-2.164,4.833-4.833,4.833s-4.833-2.164-4.833-4.833
							s2.164-4.833,4.833-4.833S256.852,226.882,256.852,229.551z"/>
						<path style="fill:#19C3CC;" d="M307.852,242.718c0,2.669-2.164,4.833-4.833,4.833s-4.833-2.164-4.833-4.833
							c0-2.669,2.164-4.833,4.833-4.833S307.852,240.048,307.852,242.718z"/>
					</g>
				</g>
				<g>
					<g>
						<g>
							<polygon style="fill:#25AAB7;" points="150.181,300.338 99,283.57 48.14,296.028 47.902,295.058 99.04,282.531 
								99.176,282.575 149.859,299.18 200.987,239.78 252.254,289.625 303.099,297.933 302.938,298.919 251.783,290.56 
								251.67,290.451 201.052,241.238 							"/>
						</g>
					</g>
					<g>
						<path style="fill:#25AAB7;" d="M52.854,294.926c0,2.669-2.164,4.833-4.833,4.833c-2.669,0-4.833-2.164-4.833-4.833
							c0-2.669,2.164-4.833,4.833-4.833C50.69,290.092,52.854,292.256,52.854,294.926z"/>
						<path style="fill:#25AAB7;" d="M103.854,283.051c0,2.669-2.164,4.833-4.833,4.833c-2.669,0-4.833-2.164-4.833-4.833
							c0-2.669,2.164-4.833,4.833-4.833C101.69,278.218,103.854,280.382,103.854,283.051z"/>
						<path style="fill:#25AAB7;" d="M154.853,299.759c0,2.669-2.164,4.833-4.833,4.833c-2.669,0-4.833-2.164-4.833-4.833
							s2.164-4.833,4.833-4.833C152.689,294.926,154.853,297.09,154.853,299.759z"/>
						<path style="fill:#25AAB7;" d="M205.853,240.509c0,2.669-2.164,4.833-4.833,4.833c-2.669,0-4.833-2.164-4.833-4.833
							c0-2.669,2.164-4.833,4.833-4.833C203.689,235.675,205.853,237.839,205.853,240.509z"/>
						<path style="fill:#25AAB7;" d="M256.852,290.092c0,2.669-2.164,4.833-4.833,4.833s-4.833-2.164-4.833-4.833
							c0-2.669,2.164-4.833,4.833-4.833S256.852,287.423,256.852,290.092z"/>
						<path style="fill:#25AAB7;" d="M307.852,298.426c0,2.669-2.164,4.833-4.833,4.833s-4.833-2.164-4.833-4.833
							c0-2.669,2.164-4.833,4.833-4.833S307.852,295.756,307.852,298.426z"/>
					</g>
				</g>
				<g>
					<g>
						<polygon style="fill:#3091A2;" points="48.36,283.168 47.682,282.434 98.949,235.061 150.123,263.992 201.066,257.832 
							251.859,273.768 302.644,216.511 303.392,217.174 252.178,274.916 200.973,258.852 149.917,265.024 149.774,264.944 
							99.092,236.29 						"/>
					</g>
					<g>
						<path style="fill:#3091A2;" d="M52.854,282.801c0,2.669-2.164,4.833-4.833,4.833c-2.669,0-4.833-2.164-4.833-4.833
							c0-2.669,2.164-4.833,4.833-4.833C50.69,277.968,52.854,280.132,52.854,282.801z"/>
						<path style="fill:#3091A2;" d="M103.854,235.675c0,2.669-2.164,4.833-4.833,4.833c-2.669,0-4.833-2.164-4.833-4.833
							c0-2.669,2.164-4.833,4.833-4.833C101.69,230.842,103.854,233.006,103.854,235.675z"/>
						<path style="fill:#3091A2;" d="M154.853,264.509c0,2.669-2.164,4.833-4.833,4.833c-2.669,0-4.833-2.164-4.833-4.833
							c0-2.669,2.164-4.833,4.833-4.833C152.689,259.675,154.853,261.839,154.853,264.509z"/>
						<path style="fill:#3091A2;" d="M205.853,258.342c0,2.669-2.164,4.833-4.833,4.833c-2.669,0-4.833-2.164-4.833-4.833
							s2.164-4.833,4.833-4.833C203.689,253.509,205.853,255.673,205.853,258.342z"/>
						<path style="fill:#3091A2;" d="M256.852,274.342c0,2.669-2.164,4.833-4.833,4.833s-4.833-2.164-4.833-4.833
							s2.164-4.833,4.833-4.833S256.852,271.673,256.852,274.342z"/>
						<circle style="fill:#3091A2;" cx="303.018" cy="216.842" r="4.833"/>
					</g>
				</g>
			</g>
			<g>
				<g>
					<g>
						<path style="fill:#FFFFFF;" d="M724.021,323.134H356.514c-4.648,0-8.417-3.768-8.417-8.417v-126.5
							c0-4.648,3.768-8.417,8.417-8.417h367.507c4.648,0,8.417,3.768,8.417,8.417v126.5
							C732.438,319.366,728.669,323.134,724.021,323.134z"/>
						<g>
							
								<text transform="matrix(1 0 0 1 364.089 202.7789)" style="fill:#A7A9AC; font-family:'Montserrat-Medium'; font-size:11.7698px;">Lorem Ipsum</text>
						</g>
					</g>
					<g>
						<g>
							<g>
								<path style="fill:#E7E5E6;" d="M713.838,216.468H366.489c-0.276,0-0.5-0.224-0.5-0.5c0-0.276,0.224-0.5,0.5-0.5h347.349
									c0.276,0,0.5,0.224,0.5,0.5C714.338,216.244,714.114,216.468,713.838,216.468z"/>
							</g>
							<g>
								<path style="fill:#E7E5E6;" d="M713.838,238.426H366.489c-0.276,0-0.5-0.224-0.5-0.5c0-0.276,0.224-0.5,0.5-0.5h347.349
									c0.276,0,0.5,0.224,0.5,0.5C714.338,238.203,714.114,238.426,713.838,238.426z"/>
							</g>
							<g>
								<path style="fill:#E7E5E6;" d="M713.838,260.385H366.489c-0.276,0-0.5-0.224-0.5-0.5c0-0.276,0.224-0.5,0.5-0.5h347.349
									c0.276,0,0.5,0.224,0.5,0.5C714.338,260.161,714.114,260.385,713.838,260.385z"/>
							</g>
							<g>
								<path style="fill:#E7E5E6;" d="M713.838,282.343H366.489c-0.276,0-0.5-0.224-0.5-0.5c0-0.276,0.224-0.5,0.5-0.5h347.349
									c0.276,0,0.5,0.224,0.5,0.5C714.338,282.119,714.114,282.343,713.838,282.343z"/>
							</g>
							<g>
								<path style="fill:#E7E5E6;" d="M713.838,304.301H366.489c-0.276,0-0.5-0.224-0.5-0.5c0-0.276,0.224-0.5,0.5-0.5h347.349
									c0.276,0,0.5,0.224,0.5,0.5C714.338,304.077,714.114,304.301,713.838,304.301z"/>
							</g>
						</g>
					</g>
				</g>
				<g style="opacity:0.2;">
					<polygon style="fill:#19C3CC;" points="378.556,235.002 429.555,264.989 480.555,239.218 531.554,269.822 582.553,229.551 
						633.553,242.718 666.553,270.665 709.005,248.884 713.838,248.884 713.838,303.801 373.722,303.801 373.722,235.675 					"/>
				</g>
				<g>
					<g>
						<g>
							<polygon style="fill:#19C3CC;" points="531.593,270.429 480.534,239.789 429.536,265.558 429.301,265.419 378.302,235.433 
								378.81,234.571 429.573,264.419 480.575,238.647 531.515,269.216 582.438,229.005 582.679,229.067 633.678,242.234 
								633.428,243.202 582.669,230.097 							"/>
						</g>
					</g>
					<g>
						<g>
							<polygon style="fill:#19C3CC;" points="666.484,271.262 666.229,271.047 633.229,243.099 633.876,242.336 666.621,270.068 
								708.776,248.439 709.233,249.329 							"/>
						</g>
					</g>
					<g>
						<g>
							<path style="fill:#FFFFFF;" d="M383.389,234.384c0,2.669-2.164,4.833-4.833,4.833s-4.833-2.164-4.833-4.833
								s2.164-4.833,4.833-4.833S383.389,231.715,383.389,234.384z"/>
							<path style="fill:#19C3CC;" d="M378.556,239.718c-2.941,0-5.333-2.393-5.333-5.334c0-2.94,2.392-5.333,5.333-5.333
								c2.94,0,5.333,2.393,5.333,5.333C383.889,237.325,381.496,239.718,378.556,239.718z M378.556,230.051
								c-2.39,0-4.333,1.944-4.333,4.333c0,2.39,1.944,4.334,4.333,4.334c2.39,0,4.333-1.944,4.333-4.334
								C382.889,231.995,380.945,230.051,378.556,230.051z"/>
						</g>
						<g>
							<path style="fill:#FFFFFF;" d="M434.388,264.989c0,2.669-2.164,4.833-4.833,4.833s-4.833-2.164-4.833-4.833
								c0-2.669,2.164-4.833,4.833-4.833S434.388,262.319,434.388,264.989z"/>
							<path style="fill:#19C3CC;" d="M429.555,270.322c-2.94,0-5.333-2.393-5.333-5.334c0-2.94,2.393-5.333,5.333-5.333
								c2.941,0,5.334,2.393,5.334,5.333C434.889,267.93,432.496,270.322,429.555,270.322z M429.555,260.655
								c-2.39,0-4.333,1.943-4.333,4.333c0,2.39,1.943,4.334,4.333,4.334c2.39,0,4.334-1.944,4.334-4.334
								C433.889,262.599,431.944,260.655,429.555,260.655z"/>
						</g>
						<g>
							<path style="fill:#FFFFFF;" d="M485.388,239.218c0,2.669-2.164,4.833-4.833,4.833c-2.669,0-4.833-2.164-4.833-4.833
								c0-2.669,2.164-4.833,4.833-4.833C483.224,234.384,485.388,236.548,485.388,239.218z"/>
							<path style="fill:#19C3CC;" d="M480.555,244.551c-2.941,0-5.334-2.393-5.334-5.333s2.393-5.334,5.334-5.334
								c2.94,0,5.333,2.393,5.333,5.334S483.495,244.551,480.555,244.551z M480.555,234.884c-2.39,0-4.334,1.944-4.334,4.334
								c0,2.39,1.944,4.333,4.334,4.333c2.39,0,4.333-1.944,4.333-4.333C484.888,236.828,482.944,234.884,480.555,234.884z"/>
						</g>
						<g>
							<circle style="fill:#FFFFFF;" cx="531.554" cy="269.822" r="4.833"/>
							<path style="fill:#19C3CC;" d="M531.554,275.155c-2.94,0-5.333-2.393-5.333-5.333c0-2.941,2.393-5.334,5.333-5.334
								c2.941,0,5.334,2.393,5.334,5.334C536.888,272.763,534.495,275.155,531.554,275.155z M531.554,265.488
								c-2.39,0-4.333,1.944-4.333,4.334c0,2.39,1.943,4.333,4.333,4.333s4.334-1.943,4.334-4.333
								C535.888,267.433,533.943,265.488,531.554,265.488z"/>
						</g>
						<g>
							<path style="fill:#FFFFFF;" d="M587.387,229.551c0,2.669-2.164,4.833-4.833,4.833c-2.669,0-4.833-2.164-4.833-4.833
								s2.164-4.833,4.833-4.833C585.223,224.718,587.387,226.882,587.387,229.551z"/>
							<path style="fill:#19C3CC;" d="M582.554,234.884c-2.941,0-5.334-2.393-5.334-5.333c0-2.941,2.393-5.333,5.334-5.333
								c2.94,0,5.333,2.393,5.333,5.333C587.887,232.492,585.494,234.884,582.554,234.884z M582.554,225.218
								c-2.39,0-4.334,1.944-4.334,4.333c0,2.389,1.944,4.333,4.334,4.333s4.333-1.944,4.333-4.333
								C586.887,227.162,584.943,225.218,582.554,225.218z"/>
						</g>
						<g>
							<path style="fill:#FFFFFF;" d="M638.386,242.718c0,2.669-2.164,4.833-4.833,4.833c-2.669,0-4.833-2.164-4.833-4.833
								c0-2.669,2.164-4.833,4.833-4.833C636.222,237.884,638.386,240.048,638.386,242.718z"/>
							<path style="fill:#19C3CC;" d="M633.553,248.051c-2.94,0-5.333-2.393-5.333-5.333s2.393-5.334,5.333-5.334
								c2.941,0,5.334,2.393,5.334,5.334S636.494,248.051,633.553,248.051z M633.553,238.384c-2.39,0-4.333,1.944-4.333,4.334
								c0,2.39,1.943,4.333,4.333,4.333c2.39,0,4.334-1.944,4.334-4.333C637.887,240.328,635.942,238.384,633.553,238.384z"/>
						</g>
						<g>
							<path style="fill:#FFFFFF;" d="M671.386,270.665c0,2.669-2.164,4.833-4.833,4.833c-2.669,0-4.833-2.164-4.833-4.833
								s2.164-4.833,4.833-4.833C669.222,265.832,671.386,267.996,671.386,270.665z"/>
							<path style="fill:#19C3CC;" d="M666.553,275.998c-2.94,0-5.333-2.392-5.333-5.333c0-2.94,2.393-5.333,5.333-5.333
								c2.941,0,5.334,2.393,5.334,5.333C671.887,273.605,669.494,275.998,666.553,275.998z M666.553,266.332
								c-2.39,0-4.333,1.943-4.333,4.333c0,2.39,1.943,4.333,4.333,4.333c2.39,0,4.334-1.943,4.334-4.333
								C670.887,268.275,668.942,266.332,666.553,266.332z"/>
						</g>
						<g>
							<circle style="fill:#FFFFFF;" cx="709.005" cy="248.884" r="4.833"/>
							<path style="fill:#19C3CC;" d="M709.005,254.218c-2.941,0-5.334-2.393-5.334-5.334c0-2.94,2.393-5.333,5.334-5.333
								c2.94,0,5.333,2.393,5.333,5.333C714.338,251.825,711.945,254.218,709.005,254.218z M709.005,244.551
								c-2.39,0-4.334,1.944-4.334,4.333c0,2.389,1.944,4.334,4.334,4.334c2.39,0,4.333-1.944,4.333-4.334
								C713.338,246.495,711.394,244.551,709.005,244.551z"/>
						</g>
					</g>
				</g>
			</g>
			<g>
				<g>
					<g>
						<path style="fill:#FFFFFF;" d="M724.021,475.543H423.604c-4.648,0-8.417-3.768-8.417-8.417v-126.5
							c0-4.648,3.768-8.417,8.417-8.417h300.417c4.648,0,8.417,3.768,8.417,8.417v126.5
							C732.438,471.775,728.669,475.543,724.021,475.543z"/>
						<g>
							
								<text transform="matrix(1 0 0 1 431.1792 355.1878)" style="fill:#A7A9AC; font-family:'Montserrat-Medium'; font-size:11.7698px;">Lorem Ipsum</text>
						</g>
					</g>
					<g>
						<g>
							<g>
								<path style="fill:#E7E5E6;" d="M713.838,368.877H433.58c-0.276,0-0.5-0.224-0.5-0.5c0-0.276,0.224-0.5,0.5-0.5h280.258
									c0.276,0,0.5,0.224,0.5,0.5C714.338,368.653,714.114,368.877,713.838,368.877z"/>
							</g>
							<g>
								<path style="fill:#E7E5E6;" d="M713.838,390.835H433.58c-0.276,0-0.5-0.224-0.5-0.5c0-0.276,0.224-0.5,0.5-0.5h280.258
									c0.276,0,0.5,0.224,0.5,0.5C714.338,390.611,714.114,390.835,713.838,390.835z"/>
							</g>
							<g>
								<path style="fill:#E7E5E6;" d="M713.838,412.793H433.58c-0.276,0-0.5-0.224-0.5-0.5c0-0.276,0.224-0.5,0.5-0.5h280.258
									c0.276,0,0.5,0.224,0.5,0.5C714.338,412.569,714.114,412.793,713.838,412.793z"/>
							</g>
							<g>
								<path style="fill:#E7E5E6;" d="M713.838,434.752H433.58c-0.276,0-0.5-0.224-0.5-0.5c0-0.276,0.224-0.5,0.5-0.5h280.258
									c0.276,0,0.5,0.224,0.5,0.5C714.338,434.528,714.114,434.752,713.838,434.752z"/>
							</g>
							<g>
								<path style="fill:#E7E5E6;" d="M713.838,456.71H433.58c-0.276,0-0.5-0.224-0.5-0.5c0-0.276,0.224-0.5,0.5-0.5h280.258
									c0.276,0,0.5,0.224,0.5,0.5C714.338,456.486,714.114,456.71,713.838,456.71z"/>
							</g>
						</g>
					</g>
				</g>
				<g>
					<g>
						<rect x="438.612" y="385.373" style="fill:#19C3CC;" width="10.694" height="70.837"/>
						<rect x="465.501" y="396.707" style="fill:#3091A2;" width="10.694" height="59.503"/>
						<rect x="451.853" y="419.04" style="fill:#25AAB7;" width="10.694" height="37.17"/>
					</g>
					<g>
						<rect x="496.816" y="417.123" style="fill:#19C3CC;" width="10.695" height="39.087"/>
						<rect x="523.705" y="437.508" style="fill:#3091A2;" width="10.694" height="18.702"/>
						<rect x="510.057" y="395.137" style="fill:#25AAB7;" width="10.694" height="61.073"/>
					</g>
					<g>
						<rect x="555.021" y="437" style="fill:#19C3CC;" width="10.694" height="19.21"/>
						<rect x="581.91" y="396.592" style="fill:#3091A2;" width="10.694" height="59.618"/>
						<rect x="568.262" y="374.637" style="fill:#25AAB7;" width="10.694" height="81.573"/>
					</g>
					<g>
						<rect x="671.429" y="403" style="fill:#19C3CC;" width="10.694" height="53.21"/>
						<rect x="698.318" y="437.643" style="fill:#3091A2;" width="10.694" height="18.567"/>
						<rect x="684.67" y="417.303" style="fill:#25AAB7;" width="10.694" height="38.907"/>
					</g>
					<g>
						<rect x="613.225" y="406" style="fill:#19C3CC;" width="10.694" height="50.21"/>
						<rect x="640.114" y="375.605" style="fill:#3091A2;" width="10.694" height="80.605"/>
						<rect x="626.466" y="443.137" style="fill:#25AAB7;" width="10.694" height="13.073"/>
					</g>
				</g>
			</g>
			<g>
				<g>
					<g>
						<g>
							<path style="fill:#FFFFFF;" d="M393.486,475.543H25.979c-4.648,0-8.417-3.768-8.417-8.417v-126.5
								c0-4.648,3.768-8.417,8.417-8.417h367.507c4.648,0,8.417,3.768,8.417,8.417v126.5
								C401.903,471.775,398.134,475.543,393.486,475.543z"/>
							<g>
								
									<text transform="matrix(1 0 0 1 33.5541 355.1878)" style="fill:#A7A9AC; font-family:'Montserrat-Medium'; font-size:11.7698px;">Lorem Ipsum</text>
							</g>
						</g>
					</g>
				</g>
				<g>
					<g>
						<g>
							<path style="fill:#E7E5E6;" d="M210.84,370.141c-25.063,0-45.387,20.316-45.387,45.379c0,25.071,20.324,45.387,45.387,45.387
								c12.847,0,24.441-5.338,32.7-13.916c7.852-8.155,12.687-19.246,12.687-31.471
								C256.227,390.456,235.903,370.141,210.84,370.141z M236.996,440.447v0.008c-6.583,6.902-15.863,11.203-26.156,11.203
								c-19.956,0-36.131-16.174-36.131-36.139c0-19.957,16.174-36.139,36.131-36.139s36.139,16.182,36.139,36.139
								C246.979,425.182,243.188,433.96,236.996,440.447z"/>
						</g>
						<path style="fill:#25AAB7;" d="M256.227,415.519c0,12.224-4.836,23.316-12.687,31.471c-8.259,8.578-19.853,13.916-32.7,13.916
							v-9.248c10.293,0,19.574-4.301,26.156-11.203v-0.008c6.192-6.487,9.982-15.265,9.982-24.928
							c0-19.957-16.182-36.139-36.139-36.139v-9.24C235.903,370.141,256.227,390.456,256.227,415.519z"/>
					</g>
					<text transform="matrix(1 0 0 1 193.1329 412.224)"><tspan x="0" y="0" style="fill:#A7A9AC; font-family:'Montserrat-Medium'; font-size:11.0891px;">Lorem</tspan><tspan x="0" y="13.307" style="fill:#A7A9AC; font-family:'Montserrat-Medium'; font-size:11.0891px;">Ipsum</tspan></text>
				</g>
				<g>
					<g>
						<g>
							<path style="fill:#E7E5E6;" d="M333.11,370.14l-0.006,0.006c-11.617,0.006-23.235,4.435-32.088,13.288
								c-17.723,17.722-17.728,46.459-0.006,64.181c17.728,17.728,46.464,17.723,64.187,0c9.084-9.084,13.508-21.057,13.282-32.962
								c-0.214-11.319-4.638-22.581-13.282-31.225C356.34,374.569,344.722,370.14,333.11,370.14z M369.227,414.652l0.006,0.006
								c0.226,9.536-3.295,19.139-10.574,26.417c-14.111,14.111-36.985,14.111-51.102-0.006
								c-14.111-14.111-14.117-36.991-0.006-51.102c7.053-7.053,16.306-10.585,25.554-10.579
								c9.248-0.006,18.501,3.526,25.554,10.579C365.491,396.799,369.018,405.686,369.227,414.652z"/>
						</g>
						<g>
							<path style="fill:#3091A2;" d="M333.11,370.14l-0.006,0.006l0,9.242c9.248-0.006,18.501,3.526,25.554,10.579
								c6.833,6.833,10.359,15.719,10.568,24.685l0.006,0.006c0.226,9.536-3.295,19.139-10.574,26.417
								c-14.111,14.111-36.985,14.111-51.102-0.006c-14.111-14.111-14.117-36.991-0.006-51.102l-6.534-6.534
								c-17.723,17.722-17.728,46.459-0.006,64.181c17.728,17.728,46.464,17.723,64.187,0c9.084-9.084,13.508-21.057,13.282-32.962
								c-0.214-11.319-4.638-22.581-13.282-31.225C356.34,374.569,344.722,370.14,333.11,370.14z"/>
						</g>
					</g>
					<text transform="matrix(1 0 0 1 315.3987 412.224)"><tspan x="0" y="0" style="fill:#A7A9AC; font-family:'Montserrat-Medium'; font-size:11.0891px;">Lorem</tspan><tspan x="0" y="13.307" style="fill:#A7A9AC; font-family:'Montserrat-Medium'; font-size:11.0891px;">Ipsum</tspan></text>
				</g>
				<g>
					<g>
						<path style="fill:#E7E5E6;" d="M88.574,370.141c-25.063,0-45.387,20.316-45.387,45.379c0,25.071,20.324,45.387,45.387,45.387
							c12.847,0,24.441-5.338,32.7-13.916c7.852-8.155,12.687-19.246,12.687-31.471C133.961,390.456,113.638,370.141,88.574,370.141
							z M114.731,440.447v0.008c-6.583,6.902-15.863,11.203-26.156,11.203c-19.956,0-36.131-16.174-36.131-36.139
							c0-19.957,16.174-36.139,36.131-36.139s36.139,16.182,36.139,36.139C124.713,425.182,120.923,433.96,114.731,440.447z"/>
						<path style="fill:#19C3CC;" d="M133.961,415.519c0,12.224-4.835,23.316-12.687,31.471l-6.543-6.535v-0.008
							c6.192-6.487,9.982-15.265,9.982-24.928c0-19.957-16.182-36.139-36.139-36.139v-9.24
							C113.638,370.141,133.961,390.456,133.961,415.519z"/>
					</g>
					<text transform="matrix(1 0 0 1 70.8675 412.224)"><tspan x="0" y="0" style="fill:#A7A9AC; font-family:'Montserrat-Medium'; font-size:11.0891px;">Lorem</tspan><tspan x="0" y="13.307" style="fill:#A7A9AC; font-family:'Montserrat-Medium'; font-size:11.0891px;">Ipsum</tspan></text>
				</g>
			</g>
		</g>
	</g>
</g>
<g id="TEXTURE">
</g>
</svg>
